<?xml version="1.0" encoding="utf-8" standalone="no"?>
<!DOCTYPE svg PUBLIC "-//W3C//DTD SVG 1.1//EN"
  "http://www.w3.org/Graphics/SVG/1.1/DTD/svg11.dtd">
<!-- Created with matplotlib (https://matplotlib.org/) -->
<svg height="360pt" version="1.1" viewBox="0 0 720 360" width="720pt" xmlns="http://www.w3.org/2000/svg" xmlns:xlink="http://www.w3.org/1999/xlink">
 <defs>
  <style type="text/css">
*{stroke-linecap:butt;stroke-linejoin:round;}
  </style>
 </defs>
 <g id="figure_1">
  <g id="patch_1">
   <path d="M 0 360 
L 720 360 
L 720 0 
L 0 0 
z
" style="fill:#ffffff;"/>
  </g>
  <g id="axes_1">
   <g id="patch_2">
    <path d="M 90 320.4 
L 648 320.4 
L 648 43.2 
L 90 43.2 
z
" style="fill:#ffffff;"/>
   </g>
   <g id="PolyCollection_1">
    <path clip-path="url(#pca67b97579)" d="M 67.223895 315.485134 
L 67.223895 320.4 
L 77.836087 320.4 
L 88.448279 320.4 
L 99.060471 320.4 
L 109.672663 320.4 
L 120.284855 320.4 
L 130.897047 320.4 
L 141.509239 320.4 
L 152.121431 320.4 
L 162.733623 320.4 
L 173.345815 320.4 
L 183.958007 320.4 
L 194.570199 320.4 
L 205.182391 320.4 
L 215.794583 320.4 
L 226.406775 320.4 
L 237.018967 320.4 
L 247.631159 320.4 
L 258.243351 320.4 
L 268.855543 320.4 
L 279.467735 320.4 
L 290.079927 320.4 
L 300.692119 320.4 
L 311.304311 320.4 
L 321.916503 320.4 
L 332.528695 320.4 
L 343.140887 320.4 
L 353.753079 320.4 
L 364.365271 320.4 
L 374.977463 320.4 
L 385.589655 320.4 
L 396.201847 320.4 
L 406.814039 320.4 
L 417.426231 320.4 
L 428.038423 320.4 
L 438.650615 320.4 
L 449.262807 320.4 
L 459.874999 320.4 
L 470.487191 320.4 
L 481.099383 320.4 
L 491.711575 320.4 
L 502.323768 320.4 
L 512.93596 320.4 
L 523.548152 320.4 
L 534.160344 320.4 
L 544.772536 320.4 
L 555.384728 320.4 
L 565.99692 320.4 
L 576.609112 320.4 
L 587.221304 320.4 
L 597.833496 320.4 
L 608.445688 320.4 
L 619.05788 320.4 
L 629.670072 320.4 
L 640.282264 320.4 
L 650.894456 320.4 
L 661.506648 320.4 
L 672.11884 320.4 
L 682.731032 320.4 
L 693.343224 320.4 
L 703.955416 320.4 
L 714.567608 320.4 
L 725.1798 320.4 
L 735.791992 320.4 
L 746.404184 320.4 
L 757.016376 320.4 
L 767.628568 320.4 
L 778.24076 320.4 
L 788.852952 320.4 
L 799.465144 320.4 
L 810.077336 320.4 
L 820.689528 320.4 
L 831.30172 320.4 
L 841.913912 320.4 
L 852.526104 320.4 
L 863.138296 320.4 
L 873.750488 320.4 
L 884.36268 320.4 
L 894.974872 320.4 
L 905.587064 320.4 
L 916.199256 320.4 
L 926.811448 320.4 
L 937.42364 320.4 
L 948.035832 320.4 
L 958.648024 320.4 
L 969.260216 320.4 
L 979.872408 320.4 
L 990.4846 320.4 
L 1001.096792 320.4 
L 1011.708984 320.4 
L 1022.321176 320.4 
L 1032.933368 320.4 
L 1043.54556 320.4 
L 1054.157752 320.4 
L 1064.769944 320.4 
L 1075.382136 320.4 
L 1085.994328 320.4 
L 1096.60652 320.4 
L 1107.218712 320.4 
L 1117.830904 320.4 
L 1128.443096 320.4 
L 1139.055288 320.4 
L 1149.66748 320.4 
L 1160.279672 320.4 
L 1170.891864 320.4 
L 1181.504056 320.4 
L 1192.116248 320.4 
L 1202.72844 320.4 
L 1213.340632 320.4 
L 1223.952824 320.4 
L 1234.565016 320.4 
L 1245.177208 320.4 
L 1255.7894 320.4 
L 1266.401592 320.4 
L 1277.013784 320.4 
L 1287.625976 320.4 
L 1298.238168 320.4 
L 1308.85036 320.4 
L 1319.462552 320.4 
L 1330.074744 320.4 
L 1340.686936 320.4 
L 1351.299128 320.4 
L 1361.91132 320.4 
L 1372.523512 320.4 
L 1383.135704 320.4 
L 1393.747896 320.4 
L 1404.360088 320.4 
L 1414.97228 320.4 
L 1425.584472 320.4 
L 1436.196664 320.4 
L 1446.808856 320.4 
L 1457.421048 320.4 
L 1468.03324 320.4 
L 1478.645432 320.4 
L 1489.257624 320.4 
L 1499.869816 320.4 
L 1510.482008 320.4 
L 1521.0942 320.4 
L 1531.706392 320.4 
L 1542.318584 320.4 
L 1552.930776 320.4 
L 1563.542968 320.4 
L 1574.15516 320.4 
L 1584.767352 320.4 
L 1595.379544 320.4 
L 1605.991736 320.4 
L 1616.603928 320.4 
L 1627.21612 320.4 
L 1637.828312 320.4 
L 1648.440504 320.4 
L 1659.052696 320.4 
L 1669.664888 320.4 
L 1680.27708 320.4 
L 1690.889272 320.4 
L 1701.501464 320.4 
L 1712.113656 320.4 
L 1722.725848 320.4 
L 1733.33804 320.4 
L 1743.950232 320.4 
L 1754.562425 320.4 
L 1765.174617 320.4 
L 1775.786809 320.4 
L 1786.399001 320.4 
L 1797.011193 320.4 
L 1807.623385 320.4 
L 1818.235577 320.4 
L 1828.847769 320.4 
L 1839.459961 320.4 
L 1850.072153 320.4 
L 1860.684345 320.4 
L 1871.296537 320.4 
L 1881.908729 320.4 
L 1892.520921 320.4 
L 1903.133113 320.4 
L 1913.745305 320.4 
L 1924.357497 320.4 
L 1934.969689 320.4 
L 1945.581881 320.4 
L 1956.194073 320.4 
L 1966.806265 320.4 
L 1977.418457 320.4 
L 1988.030649 320.4 
L 1998.642841 320.4 
L 2009.255033 320.4 
L 2019.867225 320.4 
L 2030.479417 320.4 
L 2041.091609 320.4 
L 2051.703801 320.4 
L 2062.315993 320.4 
L 2072.928185 320.4 
L 2083.540377 320.4 
L 2094.152569 320.4 
L 2104.764761 320.4 
L 2115.376953 320.4 
L 2125.989145 320.4 
L 2136.601337 320.4 
L 2147.213529 320.4 
L 2157.825721 320.4 
L 2168.437913 320.4 
L 2179.050105 320.4 
L 2179.050105 320.4 
L 2179.050105 320.4 
L 2168.437913 320.4 
L 2157.825721 320.4 
L 2147.213529 320.4 
L 2136.601337 320.4 
L 2125.989145 320.4 
L 2115.376953 320.4 
L 2104.764761 320.4 
L 2094.152569 320.4 
L 2083.540377 320.4 
L 2072.928185 320.4 
L 2062.315993 320.4 
L 2051.703801 320.4 
L 2041.091609 320.4 
L 2030.479417 320.4 
L 2019.867225 320.4 
L 2009.255033 320.4 
L 1998.642841 320.4 
L 1988.030649 320.4 
L 1977.418457 320.4 
L 1966.806265 320.4 
L 1956.194073 320.4 
L 1945.581881 320.4 
L 1934.969689 320.4 
L 1924.357497 320.4 
L 1913.745305 320.4 
L 1903.133113 320.4 
L 1892.520921 320.4 
L 1881.908729 320.4 
L 1871.296537 320.4 
L 1860.684345 320.4 
L 1850.072153 320.4 
L 1839.459961 320.4 
L 1828.847769 320.4 
L 1818.235577 320.4 
L 1807.623385 320.4 
L 1797.011193 320.4 
L 1786.399001 320.4 
L 1775.786809 320.4 
L 1765.174617 320.4 
L 1754.562425 320.4 
L 1743.950232 320.4 
L 1733.33804 320.4 
L 1722.725848 320.4 
L 1712.113656 320.4 
L 1701.501464 320.4 
L 1690.889272 320.4 
L 1680.27708 320.4 
L 1669.664888 320.4 
L 1659.052696 320.4 
L 1648.440504 320.4 
L 1637.828312 320.4 
L 1627.21612 320.4 
L 1616.603928 320.4 
L 1605.991736 320.4 
L 1595.379544 320.4 
L 1584.767352 320.4 
L 1574.15516 320.4 
L 1563.542968 320.4 
L 1552.930776 320.4 
L 1542.318584 320.4 
L 1531.706392 320.4 
L 1521.0942 320.4 
L 1510.482008 320.4 
L 1499.869816 320.4 
L 1489.257624 320.4 
L 1478.645432 320.4 
L 1468.03324 320.4 
L 1457.421048 320.4 
L 1446.808856 320.4 
L 1436.196664 320.4 
L 1425.584472 320.4 
L 1414.97228 320.4 
L 1404.360088 320.4 
L 1393.747896 320.4 
L 1383.135704 320.4 
L 1372.523512 320.4 
L 1361.91132 320.4 
L 1351.299128 320.4 
L 1340.686936 320.4 
L 1330.074744 320.4 
L 1319.462552 320.4 
L 1308.85036 320.4 
L 1298.238168 320.4 
L 1287.625976 320.4 
L 1277.013784 320.4 
L 1266.401592 320.4 
L 1255.7894 320.4 
L 1245.177208 320.4 
L 1234.565016 320.4 
L 1223.952824 320.4 
L 1213.340632 320.4 
L 1202.72844 320.4 
L 1192.116248 320.4 
L 1181.504056 320.4 
L 1170.891864 320.4 
L 1160.279672 320.4 
L 1149.66748 320.4 
L 1139.055288 320.4 
L 1128.443096 320.4 
L 1117.830904 320.4 
L 1107.218712 320.4 
L 1096.60652 320.4 
L 1085.994328 320.4 
L 1075.382136 320.4 
L 1064.769944 320.4 
L 1054.157752 320.4 
L 1043.54556 320.4 
L 1032.933368 320.4 
L 1022.321176 320.4 
L 1011.708984 320.4 
L 1001.096792 320.4 
L 990.4846 320.4 
L 979.872408 320.4 
L 969.260216 320.4 
L 958.648024 320.4 
L 948.035832 320.4 
L 937.42364 320.4 
L 926.811448 320.4 
L 916.199256 320.4 
L 905.587064 320.4 
L 894.974872 320.4 
L 884.36268 320.4 
L 873.750488 320.4 
L 863.138296 320.4 
L 852.526104 320.4 
L 841.913912 320.4 
L 831.30172 320.4 
L 820.689528 320.4 
L 810.077336 320.4 
L 799.465144 320.4 
L 788.852952 320.4 
L 778.24076 320.4 
L 767.628568 320.4 
L 757.016376 320.4 
L 746.404184 320.4 
L 735.791992 320.4 
L 725.1798 320.399997 
L 714.567608 320.399939 
L 703.955416 320.399346 
L 693.343224 320.393364 
L 682.731032 320.267051 
L 672.11884 319.033803 
L 661.506648 313.090354 
L 650.894456 288.834557 
L 640.282264 258.208595 
L 629.670072 238.774275 
L 619.05788 156.492284 
L 608.445688 173.607834 
L 597.833496 232.792774 
L 587.221304 260.239883 
L 576.609112 288.992194 
L 565.99692 303.399621 
L 555.384728 308.742782 
L 544.772536 309.41126 
L 534.160344 312.379535 
L 523.548152 311.95234 
L 512.93596 310.533919 
L 502.323768 311.33319 
L 491.711575 309.362479 
L 481.099383 307.383468 
L 470.487191 306.212793 
L 459.874999 304.689035 
L 449.262807 306.691442 
L 438.650615 304.851002 
L 428.038423 302.345306 
L 417.426231 302.582547 
L 406.814039 303.270368 
L 396.201847 304.650841 
L 385.589655 307.815796 
L 374.977463 311.203295 
L 364.365271 313.247013 
L 353.753079 313.567824 
L 343.140887 311.98284 
L 332.528695 310.185206 
L 321.916503 312.063674 
L 311.304311 316.025146 
L 300.692119 318.403728 
L 290.079927 318.927957 
L 279.467735 318.796098 
L 268.855543 318.375102 
L 258.243351 317.193463 
L 247.631159 314.907589 
L 237.018967 313.166425 
L 226.406775 314.328874 
L 215.794583 313.595658 
L 205.182391 313.976984 
L 194.570199 316.744822 
L 183.958007 317.093421 
L 173.345815 317.204319 
L 162.733623 317.367074 
L 152.121431 317.245085 
L 141.509239 317.636853 
L 130.897047 317.302898 
L 120.284855 317.24699 
L 109.672663 316.779978 
L 99.060471 316.396178 
L 88.448279 314.762938 
L 77.836087 314.048915 
L 67.223895 315.485134 
z
" style="fill:#9467bd;fill-opacity:0.75;stroke:#000000;stroke-width:0.3;"/>
   </g>
   <g id="PolyCollection_2">
    <path clip-path="url(#pca67b97579)" d="M 67.223895 314.405367 
L 67.223895 315.485134 
L 77.836087 314.048915 
L 88.448279 314.762938 
L 99.060471 316.396178 
L 109.672663 316.779978 
L 120.284855 317.24699 
L 130.897047 317.302898 
L 141.509239 317.636853 
L 152.121431 317.245085 
L 162.733623 317.367074 
L 173.345815 317.204319 
L 183.958007 317.093421 
L 194.570199 316.744822 
L 205.182391 313.976984 
L 215.794583 313.595658 
L 226.406775 314.328874 
L 237.018967 313.166425 
L 247.631159 314.907589 
L 258.243351 317.193463 
L 268.855543 318.375102 
L 279.467735 318.796098 
L 290.079927 318.927957 
L 300.692119 318.403728 
L 311.304311 316.025146 
L 321.916503 312.063674 
L 332.528695 310.185206 
L 343.140887 311.98284 
L 353.753079 313.567824 
L 364.365271 313.247013 
L 374.977463 311.203295 
L 385.589655 307.815796 
L 396.201847 304.650841 
L 406.814039 303.270368 
L 417.426231 302.582547 
L 428.038423 302.345306 
L 438.650615 304.851002 
L 449.262807 306.691442 
L 459.874999 304.689035 
L 470.487191 306.212793 
L 481.099383 307.383468 
L 491.711575 309.362479 
L 502.323768 311.33319 
L 512.93596 310.533919 
L 523.548152 311.95234 
L 534.160344 312.379535 
L 544.772536 309.41126 
L 555.384728 308.742782 
L 565.99692 303.399621 
L 576.609112 288.992194 
L 587.221304 260.239883 
L 597.833496 232.792774 
L 608.445688 173.607834 
L 619.05788 156.492284 
L 629.670072 238.774275 
L 640.282264 258.208595 
L 650.894456 288.834557 
L 661.506648 313.090354 
L 672.11884 319.033803 
L 682.731032 320.267051 
L 693.343224 320.393364 
L 703.955416 320.399346 
L 714.567608 320.399939 
L 725.1798 320.399997 
L 735.791992 320.4 
L 746.404184 320.4 
L 757.016376 320.4 
L 767.628568 320.4 
L 778.24076 320.4 
L 788.852952 320.4 
L 799.465144 320.4 
L 810.077336 320.4 
L 820.689528 320.4 
L 831.30172 320.4 
L 841.913912 320.4 
L 852.526104 320.4 
L 863.138296 320.4 
L 873.750488 320.4 
L 884.36268 320.4 
L 894.974872 320.4 
L 905.587064 320.4 
L 916.199256 320.4 
L 926.811448 320.4 
L 937.42364 320.4 
L 948.035832 320.4 
L 958.648024 320.4 
L 969.260216 320.4 
L 979.872408 320.4 
L 990.4846 320.4 
L 1001.096792 320.4 
L 1011.708984 320.4 
L 1022.321176 320.4 
L 1032.933368 320.4 
L 1043.54556 320.4 
L 1054.157752 320.4 
L 1064.769944 320.4 
L 1075.382136 320.4 
L 1085.994328 320.4 
L 1096.60652 320.4 
L 1107.218712 320.4 
L 1117.830904 320.4 
L 1128.443096 320.4 
L 1139.055288 320.4 
L 1149.66748 320.4 
L 1160.279672 320.4 
L 1170.891864 320.4 
L 1181.504056 320.4 
L 1192.116248 320.4 
L 1202.72844 320.4 
L 1213.340632 320.4 
L 1223.952824 320.4 
L 1234.565016 320.4 
L 1245.177208 320.4 
L 1255.7894 320.4 
L 1266.401592 320.4 
L 1277.013784 320.4 
L 1287.625976 320.4 
L 1298.238168 320.4 
L 1308.85036 320.4 
L 1319.462552 320.4 
L 1330.074744 320.4 
L 1340.686936 320.4 
L 1351.299128 320.4 
L 1361.91132 320.4 
L 1372.523512 320.4 
L 1383.135704 320.4 
L 1393.747896 320.4 
L 1404.360088 320.4 
L 1414.97228 320.4 
L 1425.584472 320.4 
L 1436.196664 320.4 
L 1446.808856 320.4 
L 1457.421048 320.4 
L 1468.03324 320.4 
L 1478.645432 320.4 
L 1489.257624 320.4 
L 1499.869816 320.4 
L 1510.482008 320.4 
L 1521.0942 320.4 
L 1531.706392 320.4 
L 1542.318584 320.4 
L 1552.930776 320.4 
L 1563.542968 320.4 
L 1574.15516 320.4 
L 1584.767352 320.4 
L 1595.379544 320.4 
L 1605.991736 320.4 
L 1616.603928 320.4 
L 1627.21612 320.4 
L 1637.828312 320.4 
L 1648.440504 320.4 
L 1659.052696 320.4 
L 1669.664888 320.4 
L 1680.27708 320.4 
L 1690.889272 320.4 
L 1701.501464 320.4 
L 1712.113656 320.4 
L 1722.725848 320.4 
L 1733.33804 320.4 
L 1743.950232 320.4 
L 1754.562425 320.4 
L 1765.174617 320.4 
L 1775.786809 320.4 
L 1786.399001 320.4 
L 1797.011193 320.4 
L 1807.623385 320.4 
L 1818.235577 320.4 
L 1828.847769 320.4 
L 1839.459961 320.4 
L 1850.072153 320.4 
L 1860.684345 320.4 
L 1871.296537 320.4 
L 1881.908729 320.4 
L 1892.520921 320.4 
L 1903.133113 320.4 
L 1913.745305 320.4 
L 1924.357497 320.4 
L 1934.969689 320.4 
L 1945.581881 320.4 
L 1956.194073 320.4 
L 1966.806265 320.4 
L 1977.418457 320.4 
L 1988.030649 320.4 
L 1998.642841 320.4 
L 2009.255033 320.4 
L 2019.867225 320.4 
L 2030.479417 320.4 
L 2041.091609 320.4 
L 2051.703801 320.4 
L 2062.315993 320.4 
L 2072.928185 320.4 
L 2083.540377 320.4 
L 2094.152569 320.4 
L 2104.764761 320.4 
L 2115.376953 320.4 
L 2125.989145 320.4 
L 2136.601337 320.4 
L 2147.213529 320.4 
L 2157.825721 320.4 
L 2168.437913 320.4 
L 2179.050105 320.4 
L 2179.050105 320.4 
L 2179.050105 320.4 
L 2168.437913 320.4 
L 2157.825721 320.4 
L 2147.213529 320.4 
L 2136.601337 320.4 
L 2125.989145 320.4 
L 2115.376953 320.4 
L 2104.764761 320.4 
L 2094.152569 320.4 
L 2083.540377 320.4 
L 2072.928185 320.4 
L 2062.315993 320.4 
L 2051.703801 320.4 
L 2041.091609 320.4 
L 2030.479417 320.4 
L 2019.867225 320.4 
L 2009.255033 320.4 
L 1998.642841 320.4 
L 1988.030649 320.4 
L 1977.418457 320.4 
L 1966.806265 320.4 
L 1956.194073 320.4 
L 1945.581881 320.4 
L 1934.969689 320.4 
L 1924.357497 320.4 
L 1913.745305 320.4 
L 1903.133113 320.4 
L 1892.520921 320.4 
L 1881.908729 320.4 
L 1871.296537 320.4 
L 1860.684345 320.4 
L 1850.072153 320.4 
L 1839.459961 320.4 
L 1828.847769 320.4 
L 1818.235577 320.4 
L 1807.623385 320.4 
L 1797.011193 320.4 
L 1786.399001 320.4 
L 1775.786809 320.4 
L 1765.174617 320.4 
L 1754.562425 320.4 
L 1743.950232 320.4 
L 1733.33804 320.4 
L 1722.725848 320.4 
L 1712.113656 320.4 
L 1701.501464 320.4 
L 1690.889272 320.4 
L 1680.27708 320.4 
L 1669.664888 320.4 
L 1659.052696 320.4 
L 1648.440504 320.4 
L 1637.828312 320.4 
L 1627.21612 320.4 
L 1616.603928 320.4 
L 1605.991736 320.4 
L 1595.379544 320.4 
L 1584.767352 320.4 
L 1574.15516 320.4 
L 1563.542968 320.4 
L 1552.930776 320.4 
L 1542.318584 320.4 
L 1531.706392 320.4 
L 1521.0942 320.4 
L 1510.482008 320.4 
L 1499.869816 320.4 
L 1489.257624 320.4 
L 1478.645432 320.4 
L 1468.03324 320.4 
L 1457.421048 320.4 
L 1446.808856 320.4 
L 1436.196664 320.4 
L 1425.584472 320.4 
L 1414.97228 320.4 
L 1404.360088 320.4 
L 1393.747896 320.4 
L 1383.135704 320.4 
L 1372.523512 320.4 
L 1361.91132 320.4 
L 1351.299128 320.4 
L 1340.686936 320.4 
L 1330.074744 320.4 
L 1319.462552 320.4 
L 1308.85036 320.4 
L 1298.238168 320.4 
L 1287.625976 320.4 
L 1277.013784 320.4 
L 1266.401592 320.4 
L 1255.7894 320.4 
L 1245.177208 320.4 
L 1234.565016 320.4 
L 1223.952824 320.4 
L 1213.340632 320.4 
L 1202.72844 320.4 
L 1192.116248 320.4 
L 1181.504056 320.4 
L 1170.891864 320.4 
L 1160.279672 320.4 
L 1149.66748 320.4 
L 1139.055288 320.4 
L 1128.443096 320.4 
L 1117.830904 320.4 
L 1107.218712 320.4 
L 1096.60652 320.4 
L 1085.994328 320.4 
L 1075.382136 320.4 
L 1064.769944 320.4 
L 1054.157752 320.4 
L 1043.54556 320.4 
L 1032.933368 320.4 
L 1022.321176 320.4 
L 1011.708984 320.4 
L 1001.096792 320.4 
L 990.4846 320.4 
L 979.872408 320.4 
L 969.260216 320.4 
L 958.648024 320.4 
L 948.035832 320.4 
L 937.42364 320.4 
L 926.811448 320.4 
L 916.199256 320.4 
L 905.587064 320.4 
L 894.974872 320.4 
L 884.36268 320.4 
L 873.750488 320.4 
L 863.138296 320.4 
L 852.526104 320.4 
L 841.913912 320.4 
L 831.30172 320.4 
L 820.689528 320.4 
L 810.077336 320.4 
L 799.465144 320.4 
L 788.852952 320.4 
L 778.24076 320.4 
L 767.628568 320.4 
L 757.016376 320.4 
L 746.404184 320.4 
L 735.791992 320.4 
L 725.1798 320.399997 
L 714.567608 320.399939 
L 703.955416 320.399346 
L 693.343224 320.393364 
L 682.731032 320.267051 
L 672.11884 319.033803 
L 661.506648 313.090354 
L 650.894456 288.834557 
L 640.282264 258.208595 
L 629.670072 238.774275 
L 619.05788 156.492284 
L 608.445688 173.607834 
L 597.833496 232.792774 
L 587.221304 260.239883 
L 576.609112 288.992194 
L 565.99692 303.399621 
L 555.384728 308.742782 
L 544.772536 309.411256 
L 534.160344 312.379247 
L 523.548152 311.937345 
L 512.93596 310.191019 
L 502.323768 309.117463 
L 491.711575 302.547542 
L 481.099383 299.218591 
L 470.487191 301.709924 
L 459.874999 301.062149 
L 449.262807 301.681736 
L 438.650615 297.228377 
L 428.038423 291.98913 
L 417.426231 290.272269 
L 406.814039 287.637631 
L 396.201847 282.028253 
L 385.589655 287.69898 
L 374.977463 303.037389 
L 364.365271 310.438728 
L 353.753079 311.195738 
L 343.140887 309.237484 
L 332.528695 308.141311 
L 321.916503 311.159214 
L 311.304311 315.584123 
L 300.692119 318.146335 
L 290.079927 318.702027 
L 279.467735 318.311912 
L 268.855543 316.701501 
L 258.243351 313.098095 
L 247.631159 307.012905 
L 237.018967 300.167074 
L 226.406775 304.840867 
L 215.794583 306.257832 
L 205.182391 307.097702 
L 194.570199 311.312178 
L 183.958007 307.957678 
L 173.345815 303.743445 
L 162.733623 304.238054 
L 152.121431 304.464824 
L 141.509239 305.566924 
L 130.897047 298.463895 
L 120.284855 293.554413 
L 109.672663 293.443388 
L 99.060471 298.2279 
L 88.448279 300.436244 
L 77.836087 307.983855 
L 67.223895 314.405367 
z
" style="fill:#d62728;fill-opacity:0.75;stroke:#000000;stroke-width:0.3;"/>
   </g>
   <g id="PolyCollection_3">
    <path clip-path="url(#pca67b97579)" d="M 67.223895 52.317643 
L 67.223895 314.405367 
L 77.836087 307.983855 
L 88.448279 300.436244 
L 99.060471 298.2279 
L 109.672663 293.443388 
L 120.284855 293.554413 
L 130.897047 298.463895 
L 141.509239 305.566924 
L 152.121431 304.464824 
L 162.733623 304.238054 
L 173.345815 303.743445 
L 183.958007 307.957678 
L 194.570199 311.312178 
L 205.182391 307.097702 
L 215.794583 306.257832 
L 226.406775 304.840867 
L 237.018967 300.167074 
L 247.631159 307.012905 
L 258.243351 313.098095 
L 268.855543 316.701501 
L 279.467735 318.311912 
L 290.079927 318.702027 
L 300.692119 318.146335 
L 311.304311 315.584123 
L 321.916503 311.159214 
L 332.528695 308.141311 
L 343.140887 309.237484 
L 353.753079 311.195738 
L 364.365271 310.438728 
L 374.977463 303.037389 
L 385.589655 287.69898 
L 396.201847 282.028253 
L 406.814039 287.637631 
L 417.426231 290.272269 
L 428.038423 291.98913 
L 438.650615 297.228377 
L 449.262807 301.681736 
L 459.874999 301.062149 
L 470.487191 301.709924 
L 481.099383 299.218591 
L 491.711575 302.547542 
L 502.323768 309.117463 
L 512.93596 310.191019 
L 523.548152 311.937345 
L 534.160344 312.379247 
L 544.772536 309.411256 
L 555.384728 308.742782 
L 565.99692 303.399621 
L 576.609112 288.992194 
L 587.221304 260.239883 
L 597.833496 232.792774 
L 608.445688 173.607834 
L 619.05788 156.492284 
L 629.670072 238.774275 
L 640.282264 258.208595 
L 650.894456 288.834557 
L 661.506648 313.090354 
L 672.11884 319.033803 
L 682.731032 320.267051 
L 693.343224 320.393364 
L 703.955416 320.399346 
L 714.567608 320.399939 
L 725.1798 320.399997 
L 735.791992 320.4 
L 746.404184 320.4 
L 757.016376 320.4 
L 767.628568 320.4 
L 778.24076 320.4 
L 788.852952 320.4 
L 799.465144 320.4 
L 810.077336 320.4 
L 820.689528 320.4 
L 831.30172 320.4 
L 841.913912 320.4 
L 852.526104 320.4 
L 863.138296 320.4 
L 873.750488 320.4 
L 884.36268 320.4 
L 894.974872 320.4 
L 905.587064 320.4 
L 916.199256 320.4 
L 926.811448 320.4 
L 937.42364 320.4 
L 948.035832 320.4 
L 958.648024 320.4 
L 969.260216 320.4 
L 979.872408 320.4 
L 990.4846 320.4 
L 1001.096792 320.4 
L 1011.708984 320.4 
L 1022.321176 320.4 
L 1032.933368 320.4 
L 1043.54556 320.4 
L 1054.157752 320.4 
L 1064.769944 320.4 
L 1075.382136 320.4 
L 1085.994328 320.4 
L 1096.60652 320.4 
L 1107.218712 320.4 
L 1117.830904 320.4 
L 1128.443096 320.4 
L 1139.055288 320.4 
L 1149.66748 320.4 
L 1160.279672 320.4 
L 1170.891864 320.4 
L 1181.504056 320.4 
L 1192.116248 320.4 
L 1202.72844 320.4 
L 1213.340632 320.4 
L 1223.952824 320.4 
L 1234.565016 320.4 
L 1245.177208 320.4 
L 1255.7894 320.4 
L 1266.401592 320.4 
L 1277.013784 320.4 
L 1287.625976 320.4 
L 1298.238168 320.4 
L 1308.85036 320.4 
L 1319.462552 320.4 
L 1330.074744 320.4 
L 1340.686936 320.4 
L 1351.299128 320.4 
L 1361.91132 320.4 
L 1372.523512 320.4 
L 1383.135704 320.4 
L 1393.747896 320.4 
L 1404.360088 320.4 
L 1414.97228 320.4 
L 1425.584472 320.4 
L 1436.196664 320.4 
L 1446.808856 320.4 
L 1457.421048 320.4 
L 1468.03324 320.4 
L 1478.645432 320.4 
L 1489.257624 320.4 
L 1499.869816 320.4 
L 1510.482008 320.4 
L 1521.0942 320.4 
L 1531.706392 320.4 
L 1542.318584 320.4 
L 1552.930776 320.4 
L 1563.542968 320.4 
L 1574.15516 320.4 
L 1584.767352 320.4 
L 1595.379544 320.4 
L 1605.991736 320.4 
L 1616.603928 320.4 
L 1627.21612 320.4 
L 1637.828312 320.4 
L 1648.440504 320.4 
L 1659.052696 320.4 
L 1669.664888 320.4 
L 1680.27708 320.4 
L 1690.889272 320.4 
L 1701.501464 320.4 
L 1712.113656 320.4 
L 1722.725848 320.4 
L 1733.33804 320.4 
L 1743.950232 320.4 
L 1754.562425 320.4 
L 1765.174617 320.4 
L 1775.786809 320.4 
L 1786.399001 320.4 
L 1797.011193 320.4 
L 1807.623385 320.4 
L 1818.235577 320.4 
L 1828.847769 320.4 
L 1839.459961 320.4 
L 1850.072153 320.4 
L 1860.684345 320.4 
L 1871.296537 320.4 
L 1881.908729 320.4 
L 1892.520921 320.4 
L 1903.133113 320.4 
L 1913.745305 320.4 
L 1924.357497 320.4 
L 1934.969689 320.4 
L 1945.581881 320.4 
L 1956.194073 320.4 
L 1966.806265 320.4 
L 1977.418457 320.4 
L 1988.030649 320.4 
L 1998.642841 320.4 
L 2009.255033 320.4 
L 2019.867225 320.4 
L 2030.479417 320.4 
L 2041.091609 320.4 
L 2051.703801 320.4 
L 2062.315993 320.4 
L 2072.928185 320.4 
L 2083.540377 320.4 
L 2094.152569 320.4 
L 2104.764761 320.4 
L 2115.376953 320.4 
L 2125.989145 320.4 
L 2136.601337 320.4 
L 2147.213529 320.4 
L 2157.825721 320.4 
L 2168.437913 320.4 
L 2179.050105 320.4 
L 2179.050105 320.4 
L 2179.050105 320.4 
L 2168.437913 320.4 
L 2157.825721 320.4 
L 2147.213529 320.4 
L 2136.601337 320.4 
L 2125.989145 320.4 
L 2115.376953 320.4 
L 2104.764761 320.4 
L 2094.152569 320.4 
L 2083.540377 320.4 
L 2072.928185 320.4 
L 2062.315993 320.4 
L 2051.703801 320.4 
L 2041.091609 320.4 
L 2030.479417 320.4 
L 2019.867225 320.4 
L 2009.255033 320.4 
L 1998.642841 320.4 
L 1988.030649 320.4 
L 1977.418457 320.4 
L 1966.806265 320.4 
L 1956.194073 320.4 
L 1945.581881 320.4 
L 1934.969689 320.399991 
L 1924.357497 43.2 
L 1913.745305 43.2 
L 1903.133113 43.2 
L 1892.520921 43.2 
L 1881.908729 43.2 
L 1871.296537 43.2 
L 1860.684345 43.2 
L 1850.072153 43.2 
L 1839.459961 43.2 
L 1828.847769 43.2 
L 1818.235577 43.2 
L 1807.623385 43.2 
L 1797.011193 43.2 
L 1786.399001 43.2 
L 1775.786809 43.2 
L 1765.174617 43.2 
L 1754.562425 43.2 
L 1743.950232 43.2 
L 1733.33804 43.2 
L 1722.725848 43.2 
L 1712.113656 43.2 
L 1701.501464 43.2 
L 1690.889272 43.2 
L 1680.27708 43.2 
L 1669.664888 43.2 
L 1659.052696 43.2 
L 1648.440504 43.2 
L 1637.828312 43.2 
L 1627.21612 43.2 
L 1616.603928 43.2 
L 1605.991736 43.2 
L 1595.379544 43.2 
L 1584.767352 43.2 
L 1574.15516 43.2 
L 1563.542968 43.2 
L 1552.930776 43.2 
L 1542.318584 43.2 
L 1531.706392 43.2 
L 1521.0942 43.2 
L 1510.482008 43.2 
L 1499.869816 43.2 
L 1489.257624 43.2 
L 1478.645432 43.2 
L 1468.03324 43.2 
L 1457.421048 43.2 
L 1446.808856 43.2 
L 1436.196664 43.2 
L 1425.584472 43.2 
L 1414.97228 43.2 
L 1404.360088 43.201873 
L 1393.747896 44.70071 
L 1383.135704 154.170684 
L 1372.523512 299.807792 
L 1361.91132 312.785582 
L 1351.299128 303.404457 
L 1340.686936 182.330752 
L 1330.074744 45.970323 
L 1319.462552 43.204267 
L 1308.85036 43.200001 
L 1298.238168 43.2 
L 1287.625976 43.2 
L 1277.013784 43.2 
L 1266.401592 43.2 
L 1255.7894 43.2 
L 1245.177208 43.2 
L 1234.565016 43.2 
L 1223.952824 43.2 
L 1213.340632 43.2 
L 1202.72844 43.2 
L 1192.116248 43.2 
L 1181.504056 43.2 
L 1170.891864 43.2 
L 1160.279672 43.2 
L 1149.66748 43.2 
L 1139.055288 43.2 
L 1128.443096 43.2 
L 1117.830904 43.2 
L 1107.218712 43.2 
L 1096.60652 43.2 
L 1085.994328 43.2 
L 1075.382136 43.2 
L 1064.769944 43.2 
L 1054.157752 43.2 
L 1043.54556 43.2 
L 1032.933368 43.2 
L 1022.321176 43.2 
L 1011.708984 43.2 
L 1001.096792 43.2 
L 990.4846 43.2 
L 979.872408 43.2 
L 969.260216 43.2 
L 958.648024 43.2 
L 948.035832 43.2 
L 937.42364 43.2 
L 926.811448 43.2 
L 916.199256 43.2 
L 905.587064 43.2 
L 894.974872 43.2 
L 884.36268 43.2 
L 873.750488 43.2 
L 863.138296 43.2 
L 852.526104 43.2 
L 841.913912 43.20017 
L 831.30172 43.413096 
L 820.689528 77.676275 
L 810.077336 254.49177 
L 799.465144 276.338332 
L 788.852952 148.441242 
L 778.24076 45.409906 
L 767.628568 43.203876 
L 757.016376 43.200001 
L 746.404184 43.2 
L 735.791992 43.200366 
L 725.1798 43.445848 
L 714.567608 64.079903 
L 703.955416 187.862672 
L 693.343224 233.285503 
L 682.731032 145.292249 
L 672.11884 48.4603 
L 661.506648 43.262645 
L 650.894456 51.076868 
L 640.282264 152.151692 
L 629.670072 193.423172 
L 619.05788 94.257888 
L 608.445688 109.372611 
L 597.833496 178.30746 
L 587.221304 196.91509 
L 576.609112 217.885421 
L 565.99692 200.982262 
L 555.384728 150.861759 
L 544.772536 117.87213 
L 534.160344 166.688685 
L 523.548152 144.585463 
L 512.93596 101.305799 
L 502.323768 134.931215 
L 491.711575 141.404085 
L 481.099383 160.297769 
L 470.487191 179.053774 
L 459.874999 174.608687 
L 449.262807 192.385917 
L 438.650615 179.42602 
L 428.038423 169.56663 
L 417.426231 181.798352 
L 406.814039 189.853887 
L 396.201847 196.362763 
L 385.589655 225.213741 
L 374.977463 263.960655 
L 364.365271 284.744298 
L 353.753079 289.293844 
L 343.140887 283.394801 
L 332.528695 276.39704 
L 321.916503 283.860251 
L 311.304311 300.071813 
L 300.692119 310.420834 
L 290.079927 312.638018 
L 279.467735 311.785913 
L 268.855543 309.471907 
L 258.243351 304.03604 
L 247.631159 294.892609 
L 237.018967 286.661334 
L 226.406775 294.206444 
L 215.794583 294.241816 
L 205.182391 295.255401 
L 194.570199 304.22558 
L 183.958007 301.291611 
L 173.345815 297.206848 
L 162.733623 298.147931 
L 152.121431 298.317439 
L 141.509239 299.91628 
L 130.897047 290.233301 
L 120.284855 279.842303 
L 109.672663 265.242528 
L 99.060471 243.651847 
L 88.448279 173.335756 
L 77.836087 83.149788 
L 67.223895 52.317643 
z
" style="fill:#2ca02c;fill-opacity:0.75;stroke:#000000;stroke-width:0.3;"/>
   </g>
   <g id="PolyCollection_4">
    <path clip-path="url(#pca67b97579)" d="M 67.223895 43.920983 
L 67.223895 52.317643 
L 77.836087 83.149788 
L 88.448279 173.335756 
L 99.060471 243.651847 
L 109.672663 265.242528 
L 120.284855 279.842303 
L 130.897047 290.233301 
L 141.509239 299.91628 
L 152.121431 298.317439 
L 162.733623 298.147931 
L 173.345815 297.206848 
L 183.958007 301.291611 
L 194.570199 304.22558 
L 205.182391 295.255401 
L 215.794583 294.241816 
L 226.406775 294.206444 
L 237.018967 286.661334 
L 247.631159 294.892609 
L 258.243351 304.03604 
L 268.855543 309.471907 
L 279.467735 311.785913 
L 290.079927 312.638018 
L 300.692119 310.420834 
L 311.304311 300.071813 
L 321.916503 283.860251 
L 332.528695 276.39704 
L 343.140887 283.394801 
L 353.753079 289.293844 
L 364.365271 284.744298 
L 374.977463 263.960655 
L 385.589655 225.213741 
L 396.201847 196.362763 
L 406.814039 189.853887 
L 417.426231 181.798352 
L 428.038423 169.56663 
L 438.650615 179.42602 
L 449.262807 192.385917 
L 459.874999 174.608687 
L 470.487191 179.053774 
L 481.099383 160.297769 
L 491.711575 141.404085 
L 502.323768 134.931215 
L 512.93596 101.305799 
L 523.548152 144.585463 
L 534.160344 166.688685 
L 544.772536 117.87213 
L 555.384728 150.861759 
L 565.99692 200.982262 
L 576.609112 217.885421 
L 587.221304 196.91509 
L 597.833496 178.30746 
L 608.445688 109.372611 
L 619.05788 94.257888 
L 629.670072 193.423172 
L 640.282264 152.151692 
L 650.894456 51.076868 
L 661.506648 43.262645 
L 672.11884 48.4603 
L 682.731032 145.292249 
L 693.343224 233.285503 
L 703.955416 187.862672 
L 714.567608 64.079903 
L 725.1798 43.445848 
L 735.791992 43.200366 
L 746.404184 43.2 
L 757.016376 43.200001 
L 767.628568 43.203876 
L 778.24076 45.409906 
L 788.852952 148.441242 
L 799.465144 276.338332 
L 810.077336 254.49177 
L 820.689528 77.676275 
L 831.30172 43.413096 
L 841.913912 43.20017 
L 852.526104 43.2 
L 863.138296 43.2 
L 873.750488 43.2 
L 884.36268 43.2 
L 894.974872 43.2 
L 905.587064 43.2 
L 916.199256 43.2 
L 926.811448 43.2 
L 937.42364 43.2 
L 948.035832 43.2 
L 958.648024 43.2 
L 969.260216 43.2 
L 979.872408 43.2 
L 990.4846 43.2 
L 1001.096792 43.2 
L 1011.708984 43.2 
L 1022.321176 43.2 
L 1032.933368 43.2 
L 1043.54556 43.2 
L 1054.157752 43.2 
L 1064.769944 43.2 
L 1075.382136 43.2 
L 1085.994328 43.2 
L 1096.60652 43.2 
L 1107.218712 43.2 
L 1117.830904 43.2 
L 1128.443096 43.2 
L 1139.055288 43.2 
L 1149.66748 43.2 
L 1160.279672 43.2 
L 1170.891864 43.2 
L 1181.504056 43.2 
L 1192.116248 43.2 
L 1202.72844 43.2 
L 1213.340632 43.2 
L 1223.952824 43.2 
L 1234.565016 43.2 
L 1245.177208 43.2 
L 1255.7894 43.2 
L 1266.401592 43.2 
L 1277.013784 43.2 
L 1287.625976 43.2 
L 1298.238168 43.2 
L 1308.85036 43.200001 
L 1319.462552 43.204267 
L 1330.074744 45.970323 
L 1340.686936 182.330752 
L 1351.299128 303.404457 
L 1361.91132 312.785582 
L 1372.523512 299.807792 
L 1383.135704 154.170684 
L 1393.747896 44.70071 
L 1404.360088 43.201873 
L 1414.97228 43.2 
L 1425.584472 43.2 
L 1436.196664 43.2 
L 1446.808856 43.2 
L 1457.421048 43.2 
L 1468.03324 43.2 
L 1478.645432 43.2 
L 1489.257624 43.2 
L 1499.869816 43.2 
L 1510.482008 43.2 
L 1521.0942 43.2 
L 1531.706392 43.2 
L 1542.318584 43.2 
L 1552.930776 43.2 
L 1563.542968 43.2 
L 1574.15516 43.2 
L 1584.767352 43.2 
L 1595.379544 43.2 
L 1605.991736 43.2 
L 1616.603928 43.2 
L 1627.21612 43.2 
L 1637.828312 43.2 
L 1648.440504 43.2 
L 1659.052696 43.2 
L 1669.664888 43.2 
L 1680.27708 43.2 
L 1690.889272 43.2 
L 1701.501464 43.2 
L 1712.113656 43.2 
L 1722.725848 43.2 
L 1733.33804 43.2 
L 1743.950232 43.2 
L 1754.562425 43.2 
L 1765.174617 43.2 
L 1775.786809 43.2 
L 1786.399001 43.2 
L 1797.011193 43.2 
L 1807.623385 43.2 
L 1818.235577 43.2 
L 1828.847769 43.2 
L 1839.459961 43.2 
L 1850.072153 43.2 
L 1860.684345 43.2 
L 1871.296537 43.2 
L 1881.908729 43.2 
L 1892.520921 43.2 
L 1903.133113 43.2 
L 1913.745305 43.2 
L 1924.357497 43.2 
L 1934.969689 320.399991 
L 1945.581881 320.4 
L 1956.194073 320.4 
L 1966.806265 320.4 
L 1977.418457 320.4 
L 1988.030649 320.4 
L 1998.642841 320.4 
L 2009.255033 320.4 
L 2019.867225 320.4 
L 2030.479417 320.4 
L 2041.091609 320.4 
L 2051.703801 320.4 
L 2062.315993 320.4 
L 2072.928185 320.4 
L 2083.540377 320.4 
L 2094.152569 320.4 
L 2104.764761 320.4 
L 2115.376953 320.4 
L 2125.989145 320.4 
L 2136.601337 320.4 
L 2147.213529 320.4 
L 2157.825721 320.4 
L 2168.437913 320.4 
L 2179.050105 320.4 
L 2179.050105 320.4 
L 2179.050105 320.4 
L 2168.437913 320.4 
L 2157.825721 320.4 
L 2147.213529 320.4 
L 2136.601337 320.4 
L 2125.989145 320.4 
L 2115.376953 320.4 
L 2104.764761 320.4 
L 2094.152569 320.4 
L 2083.540377 320.4 
L 2072.928185 320.4 
L 2062.315993 320.4 
L 2051.703801 320.4 
L 2041.091609 320.4 
L 2030.479417 320.4 
L 2019.867225 320.4 
L 2009.255033 320.4 
L 1998.642841 320.4 
L 1988.030649 320.4 
L 1977.418457 320.4 
L 1966.806265 320.4 
L 1956.194073 320.4 
L 1945.581881 320.4 
L 1934.969689 320.399991 
L 1924.357497 43.2 
L 1913.745305 43.2 
L 1903.133113 43.2 
L 1892.520921 43.2 
L 1881.908729 43.2 
L 1871.296537 43.2 
L 1860.684345 43.2 
L 1850.072153 43.2 
L 1839.459961 43.2 
L 1828.847769 43.2 
L 1818.235577 43.2 
L 1807.623385 43.2 
L 1797.011193 43.2 
L 1786.399001 43.2 
L 1775.786809 43.2 
L 1765.174617 43.2 
L 1754.562425 43.2 
L 1743.950232 43.2 
L 1733.33804 43.2 
L 1722.725848 43.2 
L 1712.113656 43.2 
L 1701.501464 43.2 
L 1690.889272 43.2 
L 1680.27708 43.2 
L 1669.664888 43.2 
L 1659.052696 43.2 
L 1648.440504 43.2 
L 1637.828312 43.2 
L 1627.21612 43.2 
L 1616.603928 43.2 
L 1605.991736 43.2 
L 1595.379544 43.2 
L 1584.767352 43.2 
L 1574.15516 43.2 
L 1563.542968 43.2 
L 1552.930776 43.2 
L 1542.318584 43.2 
L 1531.706392 43.2 
L 1521.0942 43.2 
L 1510.482008 43.2 
L 1499.869816 43.2 
L 1489.257624 43.2 
L 1478.645432 43.2 
L 1468.03324 43.2 
L 1457.421048 43.2 
L 1446.808856 43.2 
L 1436.196664 43.2 
L 1425.584472 43.2 
L 1414.97228 43.2 
L 1404.360088 43.201873 
L 1393.747896 44.70071 
L 1383.135704 154.170684 
L 1372.523512 299.807792 
L 1361.91132 312.785582 
L 1351.299128 303.404457 
L 1340.686936 182.330752 
L 1330.074744 45.970323 
L 1319.462552 43.204267 
L 1308.85036 43.200001 
L 1298.238168 43.2 
L 1287.625976 43.2 
L 1277.013784 43.2 
L 1266.401592 43.2 
L 1255.7894 43.2 
L 1245.177208 43.2 
L 1234.565016 43.2 
L 1223.952824 43.2 
L 1213.340632 43.2 
L 1202.72844 43.2 
L 1192.116248 43.2 
L 1181.504056 43.2 
L 1170.891864 43.2 
L 1160.279672 43.2 
L 1149.66748 43.2 
L 1139.055288 43.2 
L 1128.443096 43.2 
L 1117.830904 43.2 
L 1107.218712 43.2 
L 1096.60652 43.2 
L 1085.994328 43.2 
L 1075.382136 43.2 
L 1064.769944 43.2 
L 1054.157752 43.2 
L 1043.54556 43.2 
L 1032.933368 43.2 
L 1022.321176 43.2 
L 1011.708984 43.2 
L 1001.096792 43.2 
L 990.4846 43.2 
L 979.872408 43.2 
L 969.260216 43.2 
L 958.648024 43.2 
L 948.035832 43.2 
L 937.42364 43.2 
L 926.811448 43.2 
L 916.199256 43.2 
L 905.587064 43.2 
L 894.974872 43.2 
L 884.36268 43.2 
L 873.750488 43.2 
L 863.138296 43.2 
L 852.526104 43.2 
L 841.913912 43.20017 
L 831.30172 43.413096 
L 820.689528 77.676275 
L 810.077336 254.49177 
L 799.465144 276.338332 
L 788.852952 148.441242 
L 778.24076 45.409906 
L 767.628568 43.203876 
L 757.016376 43.200001 
L 746.404184 43.2 
L 735.791992 43.200366 
L 725.1798 43.445848 
L 714.567608 64.079903 
L 703.955416 187.862672 
L 693.343224 233.285503 
L 682.731032 145.292249 
L 672.11884 48.4603 
L 661.506648 43.262645 
L 650.894456 51.076868 
L 640.282264 152.151692 
L 629.670072 193.423172 
L 619.05788 94.257888 
L 608.445688 109.372611 
L 597.833496 178.307459 
L 587.221304 196.915063 
L 576.609112 217.884527 
L 565.99692 200.962017 
L 555.384728 150.596684 
L 544.772536 116.309437 
L 534.160344 163.285137 
L 523.548152 137.744985 
L 512.93596 91.292081 
L 502.323768 127.591258 
L 491.711575 136.806359 
L 481.099383 158.391933 
L 470.487191 178.369753 
L 459.874999 173.466219 
L 449.262807 189.772352 
L 438.650615 174.86816 
L 428.038423 164.638325 
L 417.426231 177.521748 
L 406.814039 185.210184 
L 396.201847 191.875181 
L 385.589655 222.258359 
L 374.977463 262.153256 
L 364.365271 283.187961 
L 353.753079 287.601102 
L 343.140887 281.486878 
L 332.528695 274.518407 
L 321.916503 281.898528 
L 311.304311 298.145696 
L 300.692119 309.083627 
L 290.079927 311.610675 
L 279.467735 310.976898 
L 268.855543 308.872633 
L 258.243351 303.419907 
L 247.631159 293.986939 
L 237.018967 285.440732 
L 226.406775 293.047819 
L 215.794583 292.55298 
L 205.182391 292.961021 
L 194.570199 302.384328 
L 183.958007 299.124356 
L 173.345815 294.556922 
L 162.733623 294.852181 
L 152.121431 293.65376 
L 141.509239 294.235029 
L 130.897047 281.342494 
L 120.284855 267.587885 
L 109.672663 247.753251 
L 99.060471 223.020659 
L 88.448279 148.077619 
L 77.836087 63.406299 
L 67.223895 43.920983 
z
" style="fill:#ff7f0e;fill-opacity:0.75;stroke:#000000;stroke-width:0.3;"/>
   </g>
   <g id="PolyCollection_5">
    <path clip-path="url(#pca67b97579)" d="M 67.223895 43.2 
L 67.223895 43.920983 
L 77.836087 63.406299 
L 88.448279 148.077619 
L 99.060471 223.020659 
L 109.672663 247.753251 
L 120.284855 267.587885 
L 130.897047 281.342494 
L 141.509239 294.235029 
L 152.121431 293.65376 
L 162.733623 294.852181 
L 173.345815 294.556922 
L 183.958007 299.124356 
L 194.570199 302.384328 
L 205.182391 292.961021 
L 215.794583 292.55298 
L 226.406775 293.047819 
L 237.018967 285.440732 
L 247.631159 293.986939 
L 258.243351 303.419907 
L 268.855543 308.872633 
L 279.467735 310.976898 
L 290.079927 311.610675 
L 300.692119 309.083627 
L 311.304311 298.145696 
L 321.916503 281.898528 
L 332.528695 274.518407 
L 343.140887 281.486878 
L 353.753079 287.601102 
L 364.365271 283.187961 
L 374.977463 262.153256 
L 385.589655 222.258359 
L 396.201847 191.875181 
L 406.814039 185.210184 
L 417.426231 177.521748 
L 428.038423 164.638325 
L 438.650615 174.86816 
L 449.262807 189.772352 
L 459.874999 173.466219 
L 470.487191 178.369753 
L 481.099383 158.391933 
L 491.711575 136.806359 
L 502.323768 127.591258 
L 512.93596 91.292081 
L 523.548152 137.744985 
L 534.160344 163.285137 
L 544.772536 116.309437 
L 555.384728 150.596684 
L 565.99692 200.962017 
L 576.609112 217.884527 
L 587.221304 196.915063 
L 597.833496 178.307459 
L 608.445688 109.372611 
L 619.05788 94.257888 
L 629.670072 193.423172 
L 640.282264 152.151692 
L 650.894456 51.076868 
L 661.506648 43.262645 
L 672.11884 48.4603 
L 682.731032 145.292249 
L 693.343224 233.285503 
L 703.955416 187.862672 
L 714.567608 64.079903 
L 725.1798 43.445848 
L 735.791992 43.200366 
L 746.404184 43.2 
L 757.016376 43.200001 
L 767.628568 43.203876 
L 778.24076 45.409906 
L 788.852952 148.441242 
L 799.465144 276.338332 
L 810.077336 254.49177 
L 820.689528 77.676275 
L 831.30172 43.413096 
L 841.913912 43.20017 
L 852.526104 43.2 
L 863.138296 43.2 
L 873.750488 43.2 
L 884.36268 43.2 
L 894.974872 43.2 
L 905.587064 43.2 
L 916.199256 43.2 
L 926.811448 43.2 
L 937.42364 43.2 
L 948.035832 43.2 
L 958.648024 43.2 
L 969.260216 43.2 
L 979.872408 43.2 
L 990.4846 43.2 
L 1001.096792 43.2 
L 1011.708984 43.2 
L 1022.321176 43.2 
L 1032.933368 43.2 
L 1043.54556 43.2 
L 1054.157752 43.2 
L 1064.769944 43.2 
L 1075.382136 43.2 
L 1085.994328 43.2 
L 1096.60652 43.2 
L 1107.218712 43.2 
L 1117.830904 43.2 
L 1128.443096 43.2 
L 1139.055288 43.2 
L 1149.66748 43.2 
L 1160.279672 43.2 
L 1170.891864 43.2 
L 1181.504056 43.2 
L 1192.116248 43.2 
L 1202.72844 43.2 
L 1213.340632 43.2 
L 1223.952824 43.2 
L 1234.565016 43.2 
L 1245.177208 43.2 
L 1255.7894 43.2 
L 1266.401592 43.2 
L 1277.013784 43.2 
L 1287.625976 43.2 
L 1298.238168 43.2 
L 1308.85036 43.200001 
L 1319.462552 43.204267 
L 1330.074744 45.970323 
L 1340.686936 182.330752 
L 1351.299128 303.404457 
L 1361.91132 312.785582 
L 1372.523512 299.807792 
L 1383.135704 154.170684 
L 1393.747896 44.70071 
L 1404.360088 43.201873 
L 1414.97228 43.2 
L 1425.584472 43.2 
L 1436.196664 43.2 
L 1446.808856 43.2 
L 1457.421048 43.2 
L 1468.03324 43.2 
L 1478.645432 43.2 
L 1489.257624 43.2 
L 1499.869816 43.2 
L 1510.482008 43.2 
L 1521.0942 43.2 
L 1531.706392 43.2 
L 1542.318584 43.2 
L 1552.930776 43.2 
L 1563.542968 43.2 
L 1574.15516 43.2 
L 1584.767352 43.2 
L 1595.379544 43.2 
L 1605.991736 43.2 
L 1616.603928 43.2 
L 1627.21612 43.2 
L 1637.828312 43.2 
L 1648.440504 43.2 
L 1659.052696 43.2 
L 1669.664888 43.2 
L 1680.27708 43.2 
L 1690.889272 43.2 
L 1701.501464 43.2 
L 1712.113656 43.2 
L 1722.725848 43.2 
L 1733.33804 43.2 
L 1743.950232 43.2 
L 1754.562425 43.2 
L 1765.174617 43.2 
L 1775.786809 43.2 
L 1786.399001 43.2 
L 1797.011193 43.2 
L 1807.623385 43.2 
L 1818.235577 43.2 
L 1828.847769 43.2 
L 1839.459961 43.2 
L 1850.072153 43.2 
L 1860.684345 43.2 
L 1871.296537 43.2 
L 1881.908729 43.2 
L 1892.520921 43.2 
L 1903.133113 43.2 
L 1913.745305 43.2 
L 1924.357497 43.2 
L 1934.969689 320.399991 
L 1945.581881 320.4 
L 1956.194073 320.4 
L 1966.806265 320.4 
L 1977.418457 320.4 
L 1988.030649 320.4 
L 1998.642841 320.4 
L 2009.255033 320.4 
L 2019.867225 320.4 
L 2030.479417 320.4 
L 2041.091609 320.4 
L 2051.703801 320.4 
L 2062.315993 320.4 
L 2072.928185 320.4 
L 2083.540377 320.4 
L 2094.152569 320.4 
L 2104.764761 320.4 
L 2115.376953 320.4 
L 2125.989145 320.4 
L 2136.601337 320.4 
L 2147.213529 320.4 
L 2157.825721 320.4 
L 2168.437913 320.4 
L 2179.050105 320.4 
L 2179.050105 43.2 
L 2179.050105 43.2 
L 2168.437913 43.2 
L 2157.825721 43.2 
L 2147.213529 43.2 
L 2136.601337 43.2 
L 2125.989145 43.2 
L 2115.376953 43.2 
L 2104.764761 43.2 
L 2094.152569 43.2 
L 2083.540377 43.2 
L 2072.928185 43.2 
L 2062.315993 43.2 
L 2051.703801 43.2 
L 2041.091609 43.2 
L 2030.479417 43.2 
L 2019.867225 43.2 
L 2009.255033 43.2 
L 1998.642841 43.2 
L 1988.030649 43.2 
L 1977.418457 43.2 
L 1966.806265 43.2 
L 1956.194073 43.2 
L 1945.581881 43.2 
L 1934.969689 43.2 
L 1924.357497 43.2 
L 1913.745305 43.2 
L 1903.133113 43.2 
L 1892.520921 43.2 
L 1881.908729 43.2 
L 1871.296537 43.2 
L 1860.684345 43.2 
L 1850.072153 43.2 
L 1839.459961 43.2 
L 1828.847769 43.2 
L 1818.235577 43.2 
L 1807.623385 43.2 
L 1797.011193 43.2 
L 1786.399001 43.2 
L 1775.786809 43.2 
L 1765.174617 43.2 
L 1754.562425 43.2 
L 1743.950232 43.2 
L 1733.33804 43.2 
L 1722.725848 43.2 
L 1712.113656 43.2 
L 1701.501464 43.2 
L 1690.889272 43.2 
L 1680.27708 43.2 
L 1669.664888 43.2 
L 1659.052696 43.2 
L 1648.440504 43.2 
L 1637.828312 43.2 
L 1627.21612 43.2 
L 1616.603928 43.2 
L 1605.991736 43.2 
L 1595.379544 43.2 
L 1584.767352 43.2 
L 1574.15516 43.2 
L 1563.542968 43.2 
L 1552.930776 43.2 
L 1542.318584 43.2 
L 1531.706392 43.2 
L 1521.0942 43.2 
L 1510.482008 43.2 
L 1499.869816 43.2 
L 1489.257624 43.2 
L 1478.645432 43.2 
L 1468.03324 43.2 
L 1457.421048 43.2 
L 1446.808856 43.2 
L 1436.196664 43.2 
L 1425.584472 43.2 
L 1414.97228 43.2 
L 1404.360088 43.2 
L 1393.747896 43.2 
L 1383.135704 43.2 
L 1372.523512 43.2 
L 1361.91132 43.2 
L 1351.299128 43.2 
L 1340.686936 43.2 
L 1330.074744 43.2 
L 1319.462552 43.2 
L 1308.85036 43.2 
L 1298.238168 43.2 
L 1287.625976 43.2 
L 1277.013784 43.2 
L 1266.401592 43.2 
L 1255.7894 43.2 
L 1245.177208 43.2 
L 1234.565016 43.2 
L 1223.952824 43.2 
L 1213.340632 43.2 
L 1202.72844 43.2 
L 1192.116248 43.2 
L 1181.504056 43.2 
L 1170.891864 43.2 
L 1160.279672 43.2 
L 1149.66748 43.2 
L 1139.055288 43.2 
L 1128.443096 43.2 
L 1117.830904 43.2 
L 1107.218712 43.2 
L 1096.60652 43.2 
L 1085.994328 43.2 
L 1075.382136 43.2 
L 1064.769944 43.2 
L 1054.157752 43.2 
L 1043.54556 43.2 
L 1032.933368 43.2 
L 1022.321176 43.2 
L 1011.708984 43.2 
L 1001.096792 43.2 
L 990.4846 43.2 
L 979.872408 43.2 
L 969.260216 43.2 
L 958.648024 43.2 
L 948.035832 43.2 
L 937.42364 43.2 
L 926.811448 43.2 
L 916.199256 43.2 
L 905.587064 43.2 
L 894.974872 43.2 
L 884.36268 43.2 
L 873.750488 43.2 
L 863.138296 43.2 
L 852.526104 43.2 
L 841.913912 43.2 
L 831.30172 43.2 
L 820.689528 43.2 
L 810.077336 43.2 
L 799.465144 43.2 
L 788.852952 43.2 
L 778.24076 43.2 
L 767.628568 43.2 
L 757.016376 43.2 
L 746.404184 43.2 
L 735.791992 43.2 
L 725.1798 43.2 
L 714.567608 43.2 
L 703.955416 43.2 
L 693.343224 43.2 
L 682.731032 43.2 
L 672.11884 43.2 
L 661.506648 43.2 
L 650.894456 43.2 
L 640.282264 43.2 
L 629.670072 43.2 
L 619.05788 43.2 
L 608.445688 43.2 
L 597.833496 43.2 
L 587.221304 43.2 
L 576.609112 43.2 
L 565.99692 43.2 
L 555.384728 43.2 
L 544.772536 43.2 
L 534.160344 43.2 
L 523.548152 43.2 
L 512.93596 43.2 
L 502.323768 43.2 
L 491.711575 43.2 
L 481.099383 43.2 
L 470.487191 43.2 
L 459.874999 43.2 
L 449.262807 43.2 
L 438.650615 43.2 
L 428.038423 43.2 
L 417.426231 43.2 
L 406.814039 43.2 
L 396.201847 43.2 
L 385.589655 43.2 
L 374.977463 43.2 
L 364.365271 43.2 
L 353.753079 43.2 
L 343.140887 43.2 
L 332.528695 43.2 
L 321.916503 43.2 
L 311.304311 43.2 
L 300.692119 43.2 
L 290.079927 43.2 
L 279.467735 43.2 
L 268.855543 43.2 
L 258.243351 43.2 
L 247.631159 43.2 
L 237.018967 43.2 
L 226.406775 43.2 
L 215.794583 43.2 
L 205.182391 43.2 
L 194.570199 43.2 
L 183.958007 43.2 
L 173.345815 43.2 
L 162.733623 43.2 
L 152.121431 43.2 
L 141.509239 43.2 
L 130.897047 43.2 
L 120.284855 43.2 
L 109.672663 43.2 
L 99.060471 43.2 
L 88.448279 43.2 
L 77.836087 43.2 
L 67.223895 43.2 
z
" style="fill:#1f77b4;fill-opacity:0.75;stroke:#000000;stroke-width:0.3;"/>
   </g>
   <g id="matplotlib.axis_1">
    <g id="xtick_1">
     <g id="line2d_1">
      <defs>
       <path d="M 0 0 
L 0 3.5 
" id="m41162a3adf" style="stroke:#000000;stroke-width:0.8;"/>
      </defs>
      <g>
       <use style="stroke:#000000;stroke-width:0.8;" x="90" xlink:href="#m41162a3adf" y="320.4"/>
      </g>
     </g>
     <g id="text_1">
      <!-- 0 -->
      <defs>
       <path d="M 31.78125 66.40625 
Q 24.171875 66.40625 20.328125 58.90625 
Q 16.5 51.421875 16.5 36.375 
Q 16.5 21.390625 20.328125 13.890625 
Q 24.171875 6.390625 31.78125 6.390625 
Q 39.453125 6.390625 43.28125 13.890625 
Q 47.125 21.390625 47.125 36.375 
Q 47.125 51.421875 43.28125 58.90625 
Q 39.453125 66.40625 31.78125 66.40625 
z
M 31.78125 74.21875 
Q 44.046875 74.21875 50.515625 64.515625 
Q 56.984375 54.828125 56.984375 36.375 
Q 56.984375 17.96875 50.515625 8.265625 
Q 44.046875 -1.421875 31.78125 -1.421875 
Q 19.53125 -1.421875 13.0625 8.265625 
Q 6.59375 17.96875 6.59375 36.375 
Q 6.59375 54.828125 13.0625 64.515625 
Q 19.53125 74.21875 31.78125 74.21875 
z
" id="DejaVuSans-48"/>
      </defs>
      <g transform="translate(86.81875 334.998438)scale(0.1 -0.1)">
       <use xlink:href="#DejaVuSans-48"/>
      </g>
     </g>
    </g>
    <g id="xtick_2">
     <g id="line2d_2">
      <g>
       <use style="stroke:#000000;stroke-width:0.8;" x="201.6" xlink:href="#m41162a3adf" y="320.4"/>
      </g>
     </g>
     <g id="text_2">
      <!-- 200 -->
      <defs>
       <path d="M 19.1875 8.296875 
L 53.609375 8.296875 
L 53.609375 0 
L 7.328125 0 
L 7.328125 8.296875 
Q 12.9375 14.109375 22.625 23.890625 
Q 32.328125 33.6875 34.8125 36.53125 
Q 39.546875 41.84375 41.421875 45.53125 
Q 43.3125 49.21875 43.3125 52.78125 
Q 43.3125 58.59375 39.234375 62.25 
Q 35.15625 65.921875 28.609375 65.921875 
Q 23.96875 65.921875 18.8125 64.3125 
Q 13.671875 62.703125 7.8125 59.421875 
L 7.8125 69.390625 
Q 13.765625 71.78125 18.9375 73 
Q 24.125 74.21875 28.421875 74.21875 
Q 39.75 74.21875 46.484375 68.546875 
Q 53.21875 62.890625 53.21875 53.421875 
Q 53.21875 48.921875 51.53125 44.890625 
Q 49.859375 40.875 45.40625 35.40625 
Q 44.1875 33.984375 37.640625 27.21875 
Q 31.109375 20.453125 19.1875 8.296875 
z
" id="DejaVuSans-50"/>
      </defs>
      <g transform="translate(192.05625 334.998438)scale(0.1 -0.1)">
       <use xlink:href="#DejaVuSans-50"/>
       <use x="63.623047" xlink:href="#DejaVuSans-48"/>
       <use x="127.246094" xlink:href="#DejaVuSans-48"/>
      </g>
     </g>
    </g>
    <g id="xtick_3">
     <g id="line2d_3">
      <g>
       <use style="stroke:#000000;stroke-width:0.8;" x="313.2" xlink:href="#m41162a3adf" y="320.4"/>
      </g>
     </g>
     <g id="text_3">
      <!-- 400 -->
      <defs>
       <path d="M 37.796875 64.3125 
L 12.890625 25.390625 
L 37.796875 25.390625 
z
M 35.203125 72.90625 
L 47.609375 72.90625 
L 47.609375 25.390625 
L 58.015625 25.390625 
L 58.015625 17.1875 
L 47.609375 17.1875 
L 47.609375 0 
L 37.796875 0 
L 37.796875 17.1875 
L 4.890625 17.1875 
L 4.890625 26.703125 
z
" id="DejaVuSans-52"/>
      </defs>
      <g transform="translate(303.65625 334.998438)scale(0.1 -0.1)">
       <use xlink:href="#DejaVuSans-52"/>
       <use x="63.623047" xlink:href="#DejaVuSans-48"/>
       <use x="127.246094" xlink:href="#DejaVuSans-48"/>
      </g>
     </g>
    </g>
    <g id="xtick_4">
     <g id="line2d_4">
      <g>
       <use style="stroke:#000000;stroke-width:0.8;" x="424.8" xlink:href="#m41162a3adf" y="320.4"/>
      </g>
     </g>
     <g id="text_4">
      <!-- 600 -->
      <defs>
       <path d="M 33.015625 40.375 
Q 26.375 40.375 22.484375 35.828125 
Q 18.609375 31.296875 18.609375 23.390625 
Q 18.609375 15.53125 22.484375 10.953125 
Q 26.375 6.390625 33.015625 6.390625 
Q 39.65625 6.390625 43.53125 10.953125 
Q 47.40625 15.53125 47.40625 23.390625 
Q 47.40625 31.296875 43.53125 35.828125 
Q 39.65625 40.375 33.015625 40.375 
z
M 52.59375 71.296875 
L 52.59375 62.3125 
Q 48.875 64.0625 45.09375 64.984375 
Q 41.3125 65.921875 37.59375 65.921875 
Q 27.828125 65.921875 22.671875 59.328125 
Q 17.53125 52.734375 16.796875 39.40625 
Q 19.671875 43.65625 24.015625 45.921875 
Q 28.375 48.1875 33.59375 48.1875 
Q 44.578125 48.1875 50.953125 41.515625 
Q 57.328125 34.859375 57.328125 23.390625 
Q 57.328125 12.15625 50.6875 5.359375 
Q 44.046875 -1.421875 33.015625 -1.421875 
Q 20.359375 -1.421875 13.671875 8.265625 
Q 6.984375 17.96875 6.984375 36.375 
Q 6.984375 53.65625 15.1875 63.9375 
Q 23.390625 74.21875 37.203125 74.21875 
Q 40.921875 74.21875 44.703125 73.484375 
Q 48.484375 72.75 52.59375 71.296875 
z
" id="DejaVuSans-54"/>
      </defs>
      <g transform="translate(415.25625 334.998438)scale(0.1 -0.1)">
       <use xlink:href="#DejaVuSans-54"/>
       <use x="63.623047" xlink:href="#DejaVuSans-48"/>
       <use x="127.246094" xlink:href="#DejaVuSans-48"/>
      </g>
     </g>
    </g>
    <g id="xtick_5">
     <g id="line2d_5">
      <g>
       <use style="stroke:#000000;stroke-width:0.8;" x="536.4" xlink:href="#m41162a3adf" y="320.4"/>
      </g>
     </g>
     <g id="text_5">
      <!-- 800 -->
      <defs>
       <path d="M 31.78125 34.625 
Q 24.75 34.625 20.71875 30.859375 
Q 16.703125 27.09375 16.703125 20.515625 
Q 16.703125 13.921875 20.71875 10.15625 
Q 24.75 6.390625 31.78125 6.390625 
Q 38.8125 6.390625 42.859375 10.171875 
Q 46.921875 13.96875 46.921875 20.515625 
Q 46.921875 27.09375 42.890625 30.859375 
Q 38.875 34.625 31.78125 34.625 
z
M 21.921875 38.8125 
Q 15.578125 40.375 12.03125 44.71875 
Q 8.5 49.078125 8.5 55.328125 
Q 8.5 64.0625 14.71875 69.140625 
Q 20.953125 74.21875 31.78125 74.21875 
Q 42.671875 74.21875 48.875 69.140625 
Q 55.078125 64.0625 55.078125 55.328125 
Q 55.078125 49.078125 51.53125 44.71875 
Q 48 40.375 41.703125 38.8125 
Q 48.828125 37.15625 52.796875 32.3125 
Q 56.78125 27.484375 56.78125 20.515625 
Q 56.78125 9.90625 50.3125 4.234375 
Q 43.84375 -1.421875 31.78125 -1.421875 
Q 19.734375 -1.421875 13.25 4.234375 
Q 6.78125 9.90625 6.78125 20.515625 
Q 6.78125 27.484375 10.78125 32.3125 
Q 14.796875 37.15625 21.921875 38.8125 
z
M 18.3125 54.390625 
Q 18.3125 48.734375 21.84375 45.5625 
Q 25.390625 42.390625 31.78125 42.390625 
Q 38.140625 42.390625 41.71875 45.5625 
Q 45.3125 48.734375 45.3125 54.390625 
Q 45.3125 60.0625 41.71875 63.234375 
Q 38.140625 66.40625 31.78125 66.40625 
Q 25.390625 66.40625 21.84375 63.234375 
Q 18.3125 60.0625 18.3125 54.390625 
z
" id="DejaVuSans-56"/>
      </defs>
      <g transform="translate(526.85625 334.998438)scale(0.1 -0.1)">
       <use xlink:href="#DejaVuSans-56"/>
       <use x="63.623047" xlink:href="#DejaVuSans-48"/>
       <use x="127.246094" xlink:href="#DejaVuSans-48"/>
      </g>
     </g>
    </g>
    <g id="xtick_6">
     <g id="line2d_6">
      <g>
       <use style="stroke:#000000;stroke-width:0.8;" x="648" xlink:href="#m41162a3adf" y="320.4"/>
      </g>
     </g>
     <g id="text_6">
      <!-- 1000 -->
      <defs>
       <path d="M 12.40625 8.296875 
L 28.515625 8.296875 
L 28.515625 63.921875 
L 10.984375 60.40625 
L 10.984375 69.390625 
L 28.421875 72.90625 
L 38.28125 72.90625 
L 38.28125 8.296875 
L 54.390625 8.296875 
L 54.390625 0 
L 12.40625 0 
z
" id="DejaVuSans-49"/>
      </defs>
      <g transform="translate(635.275 334.998438)scale(0.1 -0.1)">
       <use xlink:href="#DejaVuSans-49"/>
       <use x="63.623047" xlink:href="#DejaVuSans-48"/>
       <use x="127.246094" xlink:href="#DejaVuSans-48"/>
       <use x="190.869141" xlink:href="#DejaVuSans-48"/>
      </g>
     </g>
    </g>
    <g id="text_7">
     <!-- Start-end contract days -->
     <defs>
      <path d="M 53.515625 70.515625 
L 53.515625 60.890625 
Q 47.90625 63.578125 42.921875 64.890625 
Q 37.9375 66.21875 33.296875 66.21875 
Q 25.25 66.21875 20.875 63.09375 
Q 16.5 59.96875 16.5 54.203125 
Q 16.5 49.359375 19.40625 46.890625 
Q 22.3125 44.4375 30.421875 42.921875 
L 36.375 41.703125 
Q 47.40625 39.59375 52.65625 34.296875 
Q 57.90625 29 57.90625 20.125 
Q 57.90625 9.515625 50.796875 4.046875 
Q 43.703125 -1.421875 29.984375 -1.421875 
Q 24.8125 -1.421875 18.96875 -0.25 
Q 13.140625 0.921875 6.890625 3.21875 
L 6.890625 13.375 
Q 12.890625 10.015625 18.65625 8.296875 
Q 24.421875 6.59375 29.984375 6.59375 
Q 38.421875 6.59375 43.015625 9.90625 
Q 47.609375 13.234375 47.609375 19.390625 
Q 47.609375 24.75 44.3125 27.78125 
Q 41.015625 30.8125 33.5 32.328125 
L 27.484375 33.5 
Q 16.453125 35.6875 11.515625 40.375 
Q 6.59375 45.0625 6.59375 53.421875 
Q 6.59375 63.09375 13.40625 68.65625 
Q 20.21875 74.21875 32.171875 74.21875 
Q 37.3125 74.21875 42.625 73.28125 
Q 47.953125 72.359375 53.515625 70.515625 
z
" id="DejaVuSans-83"/>
      <path d="M 18.3125 70.21875 
L 18.3125 54.6875 
L 36.8125 54.6875 
L 36.8125 47.703125 
L 18.3125 47.703125 
L 18.3125 18.015625 
Q 18.3125 11.328125 20.140625 9.421875 
Q 21.96875 7.515625 27.59375 7.515625 
L 36.8125 7.515625 
L 36.8125 0 
L 27.59375 0 
Q 17.1875 0 13.234375 3.875 
Q 9.28125 7.765625 9.28125 18.015625 
L 9.28125 47.703125 
L 2.6875 47.703125 
L 2.6875 54.6875 
L 9.28125 54.6875 
L 9.28125 70.21875 
z
" id="DejaVuSans-116"/>
      <path d="M 34.28125 27.484375 
Q 23.390625 27.484375 19.1875 25 
Q 14.984375 22.515625 14.984375 16.5 
Q 14.984375 11.71875 18.140625 8.90625 
Q 21.296875 6.109375 26.703125 6.109375 
Q 34.1875 6.109375 38.703125 11.40625 
Q 43.21875 16.703125 43.21875 25.484375 
L 43.21875 27.484375 
z
M 52.203125 31.203125 
L 52.203125 0 
L 43.21875 0 
L 43.21875 8.296875 
Q 40.140625 3.328125 35.546875 0.953125 
Q 30.953125 -1.421875 24.3125 -1.421875 
Q 15.921875 -1.421875 10.953125 3.296875 
Q 6 8.015625 6 15.921875 
Q 6 25.140625 12.171875 29.828125 
Q 18.359375 34.515625 30.609375 34.515625 
L 43.21875 34.515625 
L 43.21875 35.40625 
Q 43.21875 41.609375 39.140625 45 
Q 35.0625 48.390625 27.6875 48.390625 
Q 23 48.390625 18.546875 47.265625 
Q 14.109375 46.140625 10.015625 43.890625 
L 10.015625 52.203125 
Q 14.9375 54.109375 19.578125 55.046875 
Q 24.21875 56 28.609375 56 
Q 40.484375 56 46.34375 49.84375 
Q 52.203125 43.703125 52.203125 31.203125 
z
" id="DejaVuSans-97"/>
      <path d="M 41.109375 46.296875 
Q 39.59375 47.171875 37.8125 47.578125 
Q 36.03125 48 33.890625 48 
Q 26.265625 48 22.1875 43.046875 
Q 18.109375 38.09375 18.109375 28.8125 
L 18.109375 0 
L 9.078125 0 
L 9.078125 54.6875 
L 18.109375 54.6875 
L 18.109375 46.1875 
Q 20.953125 51.171875 25.484375 53.578125 
Q 30.03125 56 36.53125 56 
Q 37.453125 56 38.578125 55.875 
Q 39.703125 55.765625 41.0625 55.515625 
z
" id="DejaVuSans-114"/>
      <path d="M 4.890625 31.390625 
L 31.203125 31.390625 
L 31.203125 23.390625 
L 4.890625 23.390625 
z
" id="DejaVuSans-45"/>
      <path d="M 56.203125 29.59375 
L 56.203125 25.203125 
L 14.890625 25.203125 
Q 15.484375 15.921875 20.484375 11.0625 
Q 25.484375 6.203125 34.421875 6.203125 
Q 39.59375 6.203125 44.453125 7.46875 
Q 49.3125 8.734375 54.109375 11.28125 
L 54.109375 2.78125 
Q 49.265625 0.734375 44.1875 -0.34375 
Q 39.109375 -1.421875 33.890625 -1.421875 
Q 20.796875 -1.421875 13.15625 6.1875 
Q 5.515625 13.8125 5.515625 26.8125 
Q 5.515625 40.234375 12.765625 48.109375 
Q 20.015625 56 32.328125 56 
Q 43.359375 56 49.78125 48.890625 
Q 56.203125 41.796875 56.203125 29.59375 
z
M 47.21875 32.234375 
Q 47.125 39.59375 43.09375 43.984375 
Q 39.0625 48.390625 32.421875 48.390625 
Q 24.90625 48.390625 20.390625 44.140625 
Q 15.875 39.890625 15.1875 32.171875 
z
" id="DejaVuSans-101"/>
      <path d="M 54.890625 33.015625 
L 54.890625 0 
L 45.90625 0 
L 45.90625 32.71875 
Q 45.90625 40.484375 42.875 44.328125 
Q 39.84375 48.1875 33.796875 48.1875 
Q 26.515625 48.1875 22.3125 43.546875 
Q 18.109375 38.921875 18.109375 30.90625 
L 18.109375 0 
L 9.078125 0 
L 9.078125 54.6875 
L 18.109375 54.6875 
L 18.109375 46.1875 
Q 21.34375 51.125 25.703125 53.5625 
Q 30.078125 56 35.796875 56 
Q 45.21875 56 50.046875 50.171875 
Q 54.890625 44.34375 54.890625 33.015625 
z
" id="DejaVuSans-110"/>
      <path d="M 45.40625 46.390625 
L 45.40625 75.984375 
L 54.390625 75.984375 
L 54.390625 0 
L 45.40625 0 
L 45.40625 8.203125 
Q 42.578125 3.328125 38.25 0.953125 
Q 33.9375 -1.421875 27.875 -1.421875 
Q 17.96875 -1.421875 11.734375 6.484375 
Q 5.515625 14.40625 5.515625 27.296875 
Q 5.515625 40.1875 11.734375 48.09375 
Q 17.96875 56 27.875 56 
Q 33.9375 56 38.25 53.625 
Q 42.578125 51.265625 45.40625 46.390625 
z
M 14.796875 27.296875 
Q 14.796875 17.390625 18.875 11.75 
Q 22.953125 6.109375 30.078125 6.109375 
Q 37.203125 6.109375 41.296875 11.75 
Q 45.40625 17.390625 45.40625 27.296875 
Q 45.40625 37.203125 41.296875 42.84375 
Q 37.203125 48.484375 30.078125 48.484375 
Q 22.953125 48.484375 18.875 42.84375 
Q 14.796875 37.203125 14.796875 27.296875 
z
" id="DejaVuSans-100"/>
      <path id="DejaVuSans-32"/>
      <path d="M 48.78125 52.59375 
L 48.78125 44.1875 
Q 44.96875 46.296875 41.140625 47.34375 
Q 37.3125 48.390625 33.40625 48.390625 
Q 24.65625 48.390625 19.8125 42.84375 
Q 14.984375 37.3125 14.984375 27.296875 
Q 14.984375 17.28125 19.8125 11.734375 
Q 24.65625 6.203125 33.40625 6.203125 
Q 37.3125 6.203125 41.140625 7.25 
Q 44.96875 8.296875 48.78125 10.40625 
L 48.78125 2.09375 
Q 45.015625 0.34375 40.984375 -0.53125 
Q 36.96875 -1.421875 32.421875 -1.421875 
Q 20.0625 -1.421875 12.78125 6.34375 
Q 5.515625 14.109375 5.515625 27.296875 
Q 5.515625 40.671875 12.859375 48.328125 
Q 20.21875 56 33.015625 56 
Q 37.15625 56 41.109375 55.140625 
Q 45.0625 54.296875 48.78125 52.59375 
z
" id="DejaVuSans-99"/>
      <path d="M 30.609375 48.390625 
Q 23.390625 48.390625 19.1875 42.75 
Q 14.984375 37.109375 14.984375 27.296875 
Q 14.984375 17.484375 19.15625 11.84375 
Q 23.34375 6.203125 30.609375 6.203125 
Q 37.796875 6.203125 41.984375 11.859375 
Q 46.1875 17.53125 46.1875 27.296875 
Q 46.1875 37.015625 41.984375 42.703125 
Q 37.796875 48.390625 30.609375 48.390625 
z
M 30.609375 56 
Q 42.328125 56 49.015625 48.375 
Q 55.71875 40.765625 55.71875 27.296875 
Q 55.71875 13.875 49.015625 6.21875 
Q 42.328125 -1.421875 30.609375 -1.421875 
Q 18.84375 -1.421875 12.171875 6.21875 
Q 5.515625 13.875 5.515625 27.296875 
Q 5.515625 40.765625 12.171875 48.375 
Q 18.84375 56 30.609375 56 
z
" id="DejaVuSans-111"/>
      <path d="M 32.171875 -5.078125 
Q 28.375 -14.84375 24.75 -17.8125 
Q 21.140625 -20.796875 15.09375 -20.796875 
L 7.90625 -20.796875 
L 7.90625 -13.28125 
L 13.1875 -13.28125 
Q 16.890625 -13.28125 18.9375 -11.515625 
Q 21 -9.765625 23.484375 -3.21875 
L 25.09375 0.875 
L 2.984375 54.6875 
L 12.5 54.6875 
L 29.59375 11.921875 
L 46.6875 54.6875 
L 56.203125 54.6875 
z
" id="DejaVuSans-121"/>
      <path d="M 44.28125 53.078125 
L 44.28125 44.578125 
Q 40.484375 46.53125 36.375 47.5 
Q 32.28125 48.484375 27.875 48.484375 
Q 21.1875 48.484375 17.84375 46.4375 
Q 14.5 44.390625 14.5 40.28125 
Q 14.5 37.15625 16.890625 35.375 
Q 19.28125 33.59375 26.515625 31.984375 
L 29.59375 31.296875 
Q 39.15625 29.25 43.1875 25.515625 
Q 47.21875 21.78125 47.21875 15.09375 
Q 47.21875 7.46875 41.1875 3.015625 
Q 35.15625 -1.421875 24.609375 -1.421875 
Q 20.21875 -1.421875 15.453125 -0.5625 
Q 10.6875 0.296875 5.421875 2 
L 5.421875 11.28125 
Q 10.40625 8.6875 15.234375 7.390625 
Q 20.0625 6.109375 24.8125 6.109375 
Q 31.15625 6.109375 34.5625 8.28125 
Q 37.984375 10.453125 37.984375 14.40625 
Q 37.984375 18.0625 35.515625 20.015625 
Q 33.0625 21.96875 24.703125 23.78125 
L 21.578125 24.515625 
Q 13.234375 26.265625 9.515625 29.90625 
Q 5.8125 33.546875 5.8125 39.890625 
Q 5.8125 47.609375 11.28125 51.796875 
Q 16.75 56 26.8125 56 
Q 31.78125 56 36.171875 55.265625 
Q 40.578125 54.546875 44.28125 53.078125 
z
" id="DejaVuSans-115"/>
     </defs>
     <g transform="translate(309.815625 348.676562)scale(0.1 -0.1)">
      <use xlink:href="#DejaVuSans-83"/>
      <use x="63.476562" xlink:href="#DejaVuSans-116"/>
      <use x="102.685547" xlink:href="#DejaVuSans-97"/>
      <use x="163.964844" xlink:href="#DejaVuSans-114"/>
      <use x="205.078125" xlink:href="#DejaVuSans-116"/>
      <use x="244.287109" xlink:href="#DejaVuSans-45"/>
      <use x="280.371094" xlink:href="#DejaVuSans-101"/>
      <use x="341.894531" xlink:href="#DejaVuSans-110"/>
      <use x="405.273438" xlink:href="#DejaVuSans-100"/>
      <use x="468.75" xlink:href="#DejaVuSans-32"/>
      <use x="500.537109" xlink:href="#DejaVuSans-99"/>
      <use x="555.517578" xlink:href="#DejaVuSans-111"/>
      <use x="616.699219" xlink:href="#DejaVuSans-110"/>
      <use x="680.078125" xlink:href="#DejaVuSans-116"/>
      <use x="719.287109" xlink:href="#DejaVuSans-114"/>
      <use x="760.400391" xlink:href="#DejaVuSans-97"/>
      <use x="821.679688" xlink:href="#DejaVuSans-99"/>
      <use x="876.660156" xlink:href="#DejaVuSans-116"/>
      <use x="915.869141" xlink:href="#DejaVuSans-32"/>
      <use x="947.65625" xlink:href="#DejaVuSans-100"/>
      <use x="1011.132812" xlink:href="#DejaVuSans-97"/>
      <use x="1072.412109" xlink:href="#DejaVuSans-121"/>
      <use x="1131.591797" xlink:href="#DejaVuSans-115"/>
     </g>
    </g>
   </g>
   <g id="matplotlib.axis_2">
    <g id="ytick_1">
     <g id="line2d_7">
      <defs>
       <path d="M 0 0 
L -3.5 0 
" id="m873b10e781" style="stroke:#000000;stroke-width:0.8;"/>
      </defs>
      <g>
       <use style="stroke:#000000;stroke-width:0.8;" x="90" xlink:href="#m873b10e781" y="320.4"/>
      </g>
     </g>
     <g id="text_8">
      <!-- 0.0 -->
      <defs>
       <path d="M 10.6875 12.40625 
L 21 12.40625 
L 21 0 
L 10.6875 0 
z
" id="DejaVuSans-46"/>
      </defs>
      <g transform="translate(67.096875 324.199219)scale(0.1 -0.1)">
       <use xlink:href="#DejaVuSans-48"/>
       <use x="63.623047" xlink:href="#DejaVuSans-46"/>
       <use x="95.410156" xlink:href="#DejaVuSans-48"/>
      </g>
     </g>
    </g>
    <g id="ytick_2">
     <g id="line2d_8">
      <g>
       <use style="stroke:#000000;stroke-width:0.8;" x="90" xlink:href="#m873b10e781" y="264.96"/>
      </g>
     </g>
     <g id="text_9">
      <!-- 0.2 -->
      <g transform="translate(67.096875 268.759219)scale(0.1 -0.1)">
       <use xlink:href="#DejaVuSans-48"/>
       <use x="63.623047" xlink:href="#DejaVuSans-46"/>
       <use x="95.410156" xlink:href="#DejaVuSans-50"/>
      </g>
     </g>
    </g>
    <g id="ytick_3">
     <g id="line2d_9">
      <g>
       <use style="stroke:#000000;stroke-width:0.8;" x="90" xlink:href="#m873b10e781" y="209.52"/>
      </g>
     </g>
     <g id="text_10">
      <!-- 0.4 -->
      <g transform="translate(67.096875 213.319219)scale(0.1 -0.1)">
       <use xlink:href="#DejaVuSans-48"/>
       <use x="63.623047" xlink:href="#DejaVuSans-46"/>
       <use x="95.410156" xlink:href="#DejaVuSans-52"/>
      </g>
     </g>
    </g>
    <g id="ytick_4">
     <g id="line2d_10">
      <g>
       <use style="stroke:#000000;stroke-width:0.8;" x="90" xlink:href="#m873b10e781" y="154.08"/>
      </g>
     </g>
     <g id="text_11">
      <!-- 0.6 -->
      <g transform="translate(67.096875 157.879219)scale(0.1 -0.1)">
       <use xlink:href="#DejaVuSans-48"/>
       <use x="63.623047" xlink:href="#DejaVuSans-46"/>
       <use x="95.410156" xlink:href="#DejaVuSans-54"/>
      </g>
     </g>
    </g>
    <g id="ytick_5">
     <g id="line2d_11">
      <g>
       <use style="stroke:#000000;stroke-width:0.8;" x="90" xlink:href="#m873b10e781" y="98.64"/>
      </g>
     </g>
     <g id="text_12">
      <!-- 0.8 -->
      <g transform="translate(67.096875 102.439219)scale(0.1 -0.1)">
       <use xlink:href="#DejaVuSans-48"/>
       <use x="63.623047" xlink:href="#DejaVuSans-46"/>
       <use x="95.410156" xlink:href="#DejaVuSans-56"/>
      </g>
     </g>
    </g>
    <g id="ytick_6">
     <g id="line2d_12">
      <g>
       <use style="stroke:#000000;stroke-width:0.8;" x="90" xlink:href="#m873b10e781" y="43.2"/>
      </g>
     </g>
     <g id="text_13">
      <!-- 1.0 -->
      <g transform="translate(67.096875 46.999219)scale(0.1 -0.1)">
       <use xlink:href="#DejaVuSans-49"/>
       <use x="63.623047" xlink:href="#DejaVuSans-46"/>
       <use x="95.410156" xlink:href="#DejaVuSans-48"/>
      </g>
     </g>
    </g>
    <g id="text_14">
     <!-- Density -->
     <defs>
      <path d="M 19.671875 64.796875 
L 19.671875 8.109375 
L 31.59375 8.109375 
Q 46.6875 8.109375 53.6875 14.9375 
Q 60.6875 21.78125 60.6875 36.53125 
Q 60.6875 51.171875 53.6875 57.984375 
Q 46.6875 64.796875 31.59375 64.796875 
z
M 9.8125 72.90625 
L 30.078125 72.90625 
Q 51.265625 72.90625 61.171875 64.09375 
Q 71.09375 55.28125 71.09375 36.53125 
Q 71.09375 17.671875 61.125 8.828125 
Q 51.171875 0 30.078125 0 
L 9.8125 0 
z
" id="DejaVuSans-68"/>
      <path d="M 9.421875 54.6875 
L 18.40625 54.6875 
L 18.40625 0 
L 9.421875 0 
z
M 9.421875 75.984375 
L 18.40625 75.984375 
L 18.40625 64.59375 
L 9.421875 64.59375 
z
" id="DejaVuSans-105"/>
     </defs>
     <g transform="translate(61.017187 200.808594)rotate(-90)scale(0.1 -0.1)">
      <use xlink:href="#DejaVuSans-68"/>
      <use x="77.001953" xlink:href="#DejaVuSans-101"/>
      <use x="138.525391" xlink:href="#DejaVuSans-110"/>
      <use x="201.904297" xlink:href="#DejaVuSans-115"/>
      <use x="254.003906" xlink:href="#DejaVuSans-105"/>
      <use x="281.787109" xlink:href="#DejaVuSans-116"/>
      <use x="320.996094" xlink:href="#DejaVuSans-121"/>
     </g>
    </g>
   </g>
   <g id="patch_3">
    <path d="M 90 320.4 
L 90 43.2 
" style="fill:none;stroke:#000000;stroke-linecap:square;stroke-linejoin:miter;stroke-width:0.8;"/>
   </g>
   <g id="patch_4">
    <path d="M 648 320.4 
L 648 43.2 
" style="fill:none;stroke:#000000;stroke-linecap:square;stroke-linejoin:miter;stroke-width:0.8;"/>
   </g>
   <g id="patch_5">
    <path d="M 90 320.4 
L 648 320.4 
" style="fill:none;stroke:#000000;stroke-linecap:square;stroke-linejoin:miter;stroke-width:0.8;"/>
   </g>
   <g id="patch_6">
    <path d="M 90 43.2 
L 648 43.2 
" style="fill:none;stroke:#000000;stroke-linecap:square;stroke-linejoin:miter;stroke-width:0.8;"/>
   </g>
   <g id="legend_1">
    <g id="patch_7">
     <path d="M 97 124.590625 
L 256.44375 124.590625 
Q 258.44375 124.590625 258.44375 122.590625 
L 258.44375 50.2 
Q 258.44375 48.2 256.44375 48.2 
L 97 48.2 
Q 95 48.2 95 50.2 
L 95 122.590625 
Q 95 124.590625 97 124.590625 
z
" style="fill:#ffffff;opacity:0.8;stroke:#cccccc;stroke-linejoin:miter;"/>
    </g>
    <g id="patch_8">
     <path d="M 99 59.798437 
L 119 59.798437 
L 119 52.798437 
L 99 52.798437 
z
" style="fill:#9467bd;fill-opacity:0.75;stroke:#000000;stroke-linejoin:miter;stroke-width:0.3;"/>
    </g>
    <g id="text_15">
     <!-- Supplies -->
     <defs>
      <path d="M 8.5 21.578125 
L 8.5 54.6875 
L 17.484375 54.6875 
L 17.484375 21.921875 
Q 17.484375 14.15625 20.5 10.265625 
Q 23.53125 6.390625 29.59375 6.390625 
Q 36.859375 6.390625 41.078125 11.03125 
Q 45.3125 15.671875 45.3125 23.6875 
L 45.3125 54.6875 
L 54.296875 54.6875 
L 54.296875 0 
L 45.3125 0 
L 45.3125 8.40625 
Q 42.046875 3.421875 37.71875 1 
Q 33.40625 -1.421875 27.6875 -1.421875 
Q 18.265625 -1.421875 13.375 4.4375 
Q 8.5 10.296875 8.5 21.578125 
z
M 31.109375 56 
z
" id="DejaVuSans-117"/>
      <path d="M 18.109375 8.203125 
L 18.109375 -20.796875 
L 9.078125 -20.796875 
L 9.078125 54.6875 
L 18.109375 54.6875 
L 18.109375 46.390625 
Q 20.953125 51.265625 25.265625 53.625 
Q 29.59375 56 35.59375 56 
Q 45.5625 56 51.78125 48.09375 
Q 58.015625 40.1875 58.015625 27.296875 
Q 58.015625 14.40625 51.78125 6.484375 
Q 45.5625 -1.421875 35.59375 -1.421875 
Q 29.59375 -1.421875 25.265625 0.953125 
Q 20.953125 3.328125 18.109375 8.203125 
z
M 48.6875 27.296875 
Q 48.6875 37.203125 44.609375 42.84375 
Q 40.53125 48.484375 33.40625 48.484375 
Q 26.265625 48.484375 22.1875 42.84375 
Q 18.109375 37.203125 18.109375 27.296875 
Q 18.109375 17.390625 22.1875 11.75 
Q 26.265625 6.109375 33.40625 6.109375 
Q 40.53125 6.109375 44.609375 11.75 
Q 48.6875 17.390625 48.6875 27.296875 
z
" id="DejaVuSans-112"/>
      <path d="M 9.421875 75.984375 
L 18.40625 75.984375 
L 18.40625 0 
L 9.421875 0 
z
" id="DejaVuSans-108"/>
     </defs>
     <g transform="translate(127 59.798437)scale(0.1 -0.1)">
      <use xlink:href="#DejaVuSans-83"/>
      <use x="63.476562" xlink:href="#DejaVuSans-117"/>
      <use x="126.855469" xlink:href="#DejaVuSans-112"/>
      <use x="190.332031" xlink:href="#DejaVuSans-112"/>
      <use x="253.808594" xlink:href="#DejaVuSans-108"/>
      <use x="281.591797" xlink:href="#DejaVuSans-105"/>
      <use x="309.375" xlink:href="#DejaVuSans-101"/>
      <use x="370.898438" xlink:href="#DejaVuSans-115"/>
     </g>
    </g>
    <g id="patch_9">
     <path d="M 99 74.476562 
L 119 74.476562 
L 119 67.476562 
L 99 67.476562 
z
" style="fill:#d62728;fill-opacity:0.75;stroke:#000000;stroke-linejoin:miter;stroke-width:0.3;"/>
    </g>
    <g id="text_16">
     <!-- Private non-profit entities -->
     <defs>
      <path d="M 19.671875 64.796875 
L 19.671875 37.40625 
L 32.078125 37.40625 
Q 38.96875 37.40625 42.71875 40.96875 
Q 46.484375 44.53125 46.484375 51.125 
Q 46.484375 57.671875 42.71875 61.234375 
Q 38.96875 64.796875 32.078125 64.796875 
z
M 9.8125 72.90625 
L 32.078125 72.90625 
Q 44.34375 72.90625 50.609375 67.359375 
Q 56.890625 61.8125 56.890625 51.125 
Q 56.890625 40.328125 50.609375 34.8125 
Q 44.34375 29.296875 32.078125 29.296875 
L 19.671875 29.296875 
L 19.671875 0 
L 9.8125 0 
z
" id="DejaVuSans-80"/>
      <path d="M 2.984375 54.6875 
L 12.5 54.6875 
L 29.59375 8.796875 
L 46.6875 54.6875 
L 56.203125 54.6875 
L 35.6875 0 
L 23.484375 0 
z
" id="DejaVuSans-118"/>
      <path d="M 37.109375 75.984375 
L 37.109375 68.5 
L 28.515625 68.5 
Q 23.6875 68.5 21.796875 66.546875 
Q 19.921875 64.59375 19.921875 59.515625 
L 19.921875 54.6875 
L 34.71875 54.6875 
L 34.71875 47.703125 
L 19.921875 47.703125 
L 19.921875 0 
L 10.890625 0 
L 10.890625 47.703125 
L 2.296875 47.703125 
L 2.296875 54.6875 
L 10.890625 54.6875 
L 10.890625 58.5 
Q 10.890625 67.625 15.140625 71.796875 
Q 19.390625 75.984375 28.609375 75.984375 
z
" id="DejaVuSans-102"/>
     </defs>
     <g transform="translate(127 74.476562)scale(0.1 -0.1)">
      <use xlink:href="#DejaVuSans-80"/>
      <use x="58.552734" xlink:href="#DejaVuSans-114"/>
      <use x="99.666016" xlink:href="#DejaVuSans-105"/>
      <use x="127.449219" xlink:href="#DejaVuSans-118"/>
      <use x="186.628906" xlink:href="#DejaVuSans-97"/>
      <use x="247.908203" xlink:href="#DejaVuSans-116"/>
      <use x="287.117188" xlink:href="#DejaVuSans-101"/>
      <use x="348.640625" xlink:href="#DejaVuSans-32"/>
      <use x="380.427734" xlink:href="#DejaVuSans-110"/>
      <use x="443.806641" xlink:href="#DejaVuSans-111"/>
      <use x="504.988281" xlink:href="#DejaVuSans-110"/>
      <use x="568.367188" xlink:href="#DejaVuSans-45"/>
      <use x="604.451172" xlink:href="#DejaVuSans-112"/>
      <use x="667.927734" xlink:href="#DejaVuSans-114"/>
      <use x="706.791016" xlink:href="#DejaVuSans-111"/>
      <use x="767.972656" xlink:href="#DejaVuSans-102"/>
      <use x="803.177734" xlink:href="#DejaVuSans-105"/>
      <use x="830.960938" xlink:href="#DejaVuSans-116"/>
      <use x="870.169922" xlink:href="#DejaVuSans-32"/>
      <use x="901.957031" xlink:href="#DejaVuSans-101"/>
      <use x="963.480469" xlink:href="#DejaVuSans-110"/>
      <use x="1026.859375" xlink:href="#DejaVuSans-116"/>
      <use x="1066.068359" xlink:href="#DejaVuSans-105"/>
      <use x="1093.851562" xlink:href="#DejaVuSans-116"/>
      <use x="1133.060547" xlink:href="#DejaVuSans-105"/>
      <use x="1160.84375" xlink:href="#DejaVuSans-101"/>
      <use x="1222.367188" xlink:href="#DejaVuSans-115"/>
     </g>
    </g>
    <g id="patch_10">
     <path d="M 99 89.154687 
L 119 89.154687 
L 119 82.154687 
L 99 82.154687 
z
" style="fill:#2ca02c;fill-opacity:0.75;stroke:#000000;stroke-linejoin:miter;stroke-width:0.3;"/>
    </g>
    <g id="text_17">
     <!-- Others -->
     <defs>
      <path d="M 39.40625 66.21875 
Q 28.65625 66.21875 22.328125 58.203125 
Q 16.015625 50.203125 16.015625 36.375 
Q 16.015625 22.609375 22.328125 14.59375 
Q 28.65625 6.59375 39.40625 6.59375 
Q 50.140625 6.59375 56.421875 14.59375 
Q 62.703125 22.609375 62.703125 36.375 
Q 62.703125 50.203125 56.421875 58.203125 
Q 50.140625 66.21875 39.40625 66.21875 
z
M 39.40625 74.21875 
Q 54.734375 74.21875 63.90625 63.9375 
Q 73.09375 53.65625 73.09375 36.375 
Q 73.09375 19.140625 63.90625 8.859375 
Q 54.734375 -1.421875 39.40625 -1.421875 
Q 24.03125 -1.421875 14.8125 8.828125 
Q 5.609375 19.09375 5.609375 36.375 
Q 5.609375 53.65625 14.8125 63.9375 
Q 24.03125 74.21875 39.40625 74.21875 
z
" id="DejaVuSans-79"/>
      <path d="M 54.890625 33.015625 
L 54.890625 0 
L 45.90625 0 
L 45.90625 32.71875 
Q 45.90625 40.484375 42.875 44.328125 
Q 39.84375 48.1875 33.796875 48.1875 
Q 26.515625 48.1875 22.3125 43.546875 
Q 18.109375 38.921875 18.109375 30.90625 
L 18.109375 0 
L 9.078125 0 
L 9.078125 75.984375 
L 18.109375 75.984375 
L 18.109375 46.1875 
Q 21.34375 51.125 25.703125 53.5625 
Q 30.078125 56 35.796875 56 
Q 45.21875 56 50.046875 50.171875 
Q 54.890625 44.34375 54.890625 33.015625 
z
" id="DejaVuSans-104"/>
     </defs>
     <g transform="translate(127 89.154687)scale(0.1 -0.1)">
      <use xlink:href="#DejaVuSans-79"/>
      <use x="78.710938" xlink:href="#DejaVuSans-116"/>
      <use x="117.919922" xlink:href="#DejaVuSans-104"/>
      <use x="181.298828" xlink:href="#DejaVuSans-101"/>
      <use x="242.822266" xlink:href="#DejaVuSans-114"/>
      <use x="283.935547" xlink:href="#DejaVuSans-115"/>
     </g>
    </g>
    <g id="patch_11">
     <path d="M 99 103.832812 
L 119 103.832812 
L 119 96.832812 
L 99 96.832812 
z
" style="fill:#ff7f0e;fill-opacity:0.75;stroke:#000000;stroke-linejoin:miter;stroke-width:0.3;"/>
    </g>
    <g id="text_18">
     <!-- Buy and Sell -->
     <defs>
      <path d="M 19.671875 34.8125 
L 19.671875 8.109375 
L 35.5 8.109375 
Q 43.453125 8.109375 47.28125 11.40625 
Q 51.125 14.703125 51.125 21.484375 
Q 51.125 28.328125 47.28125 31.5625 
Q 43.453125 34.8125 35.5 34.8125 
z
M 19.671875 64.796875 
L 19.671875 42.828125 
L 34.28125 42.828125 
Q 41.5 42.828125 45.03125 45.53125 
Q 48.578125 48.25 48.578125 53.8125 
Q 48.578125 59.328125 45.03125 62.0625 
Q 41.5 64.796875 34.28125 64.796875 
z
M 9.8125 72.90625 
L 35.015625 72.90625 
Q 46.296875 72.90625 52.390625 68.21875 
Q 58.5 63.53125 58.5 54.890625 
Q 58.5 48.1875 55.375 44.234375 
Q 52.25 40.28125 46.1875 39.3125 
Q 53.46875 37.75 57.5 32.78125 
Q 61.53125 27.828125 61.53125 20.40625 
Q 61.53125 10.640625 54.890625 5.3125 
Q 48.25 0 35.984375 0 
L 9.8125 0 
z
" id="DejaVuSans-66"/>
     </defs>
     <g transform="translate(127 103.832812)scale(0.1 -0.1)">
      <use xlink:href="#DejaVuSans-66"/>
      <use x="68.603516" xlink:href="#DejaVuSans-117"/>
      <use x="131.982422" xlink:href="#DejaVuSans-121"/>
      <use x="191.162109" xlink:href="#DejaVuSans-32"/>
      <use x="222.949219" xlink:href="#DejaVuSans-97"/>
      <use x="284.228516" xlink:href="#DejaVuSans-110"/>
      <use x="347.607422" xlink:href="#DejaVuSans-100"/>
      <use x="411.083984" xlink:href="#DejaVuSans-32"/>
      <use x="442.871094" xlink:href="#DejaVuSans-83"/>
      <use x="506.347656" xlink:href="#DejaVuSans-101"/>
      <use x="567.871094" xlink:href="#DejaVuSans-108"/>
      <use x="595.654297" xlink:href="#DejaVuSans-108"/>
     </g>
    </g>
    <g id="patch_12">
     <path d="M 99 118.510937 
L 119 118.510937 
L 119 111.510937 
L 99 111.510937 
z
" style="fill:#1f77b4;fill-opacity:0.75;stroke:#000000;stroke-linejoin:miter;stroke-width:0.3;"/>
    </g>
    <g id="text_19">
     <!-- Professional services -->
     <g transform="translate(127 118.510937)scale(0.1 -0.1)">
      <use xlink:href="#DejaVuSans-80"/>
      <use x="58.552734" xlink:href="#DejaVuSans-114"/>
      <use x="97.416016" xlink:href="#DejaVuSans-111"/>
      <use x="158.597656" xlink:href="#DejaVuSans-102"/>
      <use x="193.802734" xlink:href="#DejaVuSans-101"/>
      <use x="255.326172" xlink:href="#DejaVuSans-115"/>
      <use x="307.425781" xlink:href="#DejaVuSans-115"/>
      <use x="359.525391" xlink:href="#DejaVuSans-105"/>
      <use x="387.308594" xlink:href="#DejaVuSans-111"/>
      <use x="448.490234" xlink:href="#DejaVuSans-110"/>
      <use x="511.869141" xlink:href="#DejaVuSans-97"/>
      <use x="573.148438" xlink:href="#DejaVuSans-108"/>
      <use x="600.931641" xlink:href="#DejaVuSans-32"/>
      <use x="632.71875" xlink:href="#DejaVuSans-115"/>
      <use x="684.818359" xlink:href="#DejaVuSans-101"/>
      <use x="746.341797" xlink:href="#DejaVuSans-114"/>
      <use x="787.455078" xlink:href="#DejaVuSans-118"/>
      <use x="846.634766" xlink:href="#DejaVuSans-105"/>
      <use x="874.417969" xlink:href="#DejaVuSans-99"/>
      <use x="929.398438" xlink:href="#DejaVuSans-101"/>
      <use x="990.921875" xlink:href="#DejaVuSans-115"/>
     </g>
    </g>
   </g>
  </g>
 </g>
 <defs>
  <clipPath id="pca67b97579">
   <rect height="277.2" width="558" x="90" y="43.2"/>
  </clipPath>
 </defs>
</svg>
